<svg width="48" height="45" viewBox="0 0 48 45" fill="none" xmlns="http://www.w3.org/2000/svg">
<path d="M29.7451 0.545898C30.986 0.405878 32.2422 0.589767 33.3877 1.08008C34.533 1.57059 35.5286 2.34987 36.2734 3.33887L46.0986 16.4355C46.8425 17.4273 47.3097 18.5949 47.4531 19.8203C47.5876 20.9695 47.4334 22.1324 47.0059 23.207L46.917 23.4199L40.3564 38.3701C39.8618 39.5009 39.0739 40.4839 38.0723 41.2197C37.1333 41.9088 36.0376 42.3588 34.8828 42.5293L34.6504 42.5596L18.2539 44.4531C17.0134 44.5963 15.7567 44.4126 14.6104 43.9219C13.5361 43.4621 12.5948 42.7473 11.8691 41.8428L11.7275 41.6592L1.90137 28.5635C1.15745 27.5717 0.691204 26.4042 0.547852 25.1787V25.1777L0.524414 24.9482C0.428099 23.7982 0.619361 22.6413 1.08301 21.5791L7.64355 6.62793C8.13791 5.49666 8.92532 4.51295 9.92676 3.77734C10.9281 3.04194 12.1085 2.58057 13.3486 2.43945H13.3496L29.7441 0.544922L29.7451 0.545898Z" fill="#FF7C11" stroke="white"/>
<path d="M12.7585 17.9654C12.6882 16.5698 13.0574 15.1913 13.8044 14.0355L13.999 13.7513L14.0151 13.7357L14.1502 13.5772L14.2918 13.4153L14.3079 13.3987C14.5781 13.1216 14.8772 12.878 15.2 12.67L15.2911 12.6123L15.3822 12.5587L15.5967 12.4352C15.6835 12.3941 15.7779 12.3451 15.8648 12.304C15.928 12.2795 15.9913 12.2472 16.0545 12.2227C16.1736 12.1727 16.3001 12.1237 16.4266 12.0826C16.4695 12.0614 16.5145 12.0447 16.5606 12.0336L16.6118 12.013L16.6679 11.9925C17.2447 11.82 17.8377 11.701 18.4371 11.6465L18.375 11.6537V10.4105C18.375 9.91195 18.7771 9.50887 19.2744 9.50887C19.7718 9.50887 20.175 9.91195 20.175 10.4105V14.3401C20.175 14.8386 19.7718 15.2428 19.2744 15.2428C18.7771 15.2428 18.375 14.8386 18.375 14.3401L18.3751 13.4316C17.7846 13.4907 17.2049 13.6376 16.655 13.8703C15.236 14.5087 14.5593 15.7244 14.4952 17.6509L14.4901 17.961V18.4449H33.5107V17.9487C33.5471 17.0565 33.3681 16.1688 32.9885 15.3666C32.6239 14.6802 32.0406 14.1474 31.3362 13.8581C30.8875 13.665 30.4176 13.5302 29.9374 13.4567L29.625 13.4187L29.625 14.3356C29.625 14.832 29.2223 15.234 28.725 15.234C28.2278 15.234 27.825 14.832 27.825 14.3356L27.825 13.3512L20.1838 13.3519V11.5642L27.825 11.5637L27.825 10.4052C27.8205 9.90881 28.221 9.50341 28.7183 9.50002C29.2155 9.49667 29.6217 9.89533 29.625 10.3917L29.6258 11.6468C30.0625 11.6899 30.4956 11.7661 30.9219 11.875L31.3458 11.9947C31.3801 12.0014 31.4059 12.0103 31.453 12.027C31.5002 12.0436 31.5399 12.0603 31.5871 12.0759C31.7125 12.1171 31.8294 12.166 31.9506 12.2161C32.0203 12.2405 32.0846 12.2728 32.1393 12.2973C32.2336 12.3384 32.3301 12.3874 32.4073 12.4286C32.4867 12.4697 32.5628 12.5153 32.6293 12.552C32.6958 12.5888 32.7472 12.6299 32.803 12.6633C33.0459 12.8202 33.2767 12.997 33.4922 13.1916L33.7026 13.392L33.7123 13.4087L33.8593 13.5647L33.9975 13.7291L34.005 13.7446C34.8136 14.8629 35.2486 16.2211 35.25 17.6125L35.2413 17.961V18.4449H35.25V28.1377C35.25 32.3645 32.8895 34.5 28.2114 34.5H19.7779C15.1105 34.5 12.75 32.3645 12.75 28.1377V18.4449H12.7585V17.9654ZM29.1449 27.3079C28.5655 27.3079 28.1041 27.7836 28.1041 28.3701C28.1148 28.9565 28.5762 29.4323 29.1449 29.4323C29.7135 29.4323 30.1749 28.9565 30.1749 28.3701C30.1749 27.7836 29.7135 27.3079 29.1449 27.3079ZM24.0054 27.2968C23.426 27.3079 22.9646 27.7836 22.9646 28.3701C22.9646 28.9565 23.4367 29.4323 24.0054 29.4323C24.574 29.4323 25.0354 28.9565 25.0354 28.359C25.0247 27.7836 24.574 27.3079 24.0054 27.2968ZM18.8551 27.2968C18.2758 27.2968 17.8144 27.7836 17.8251 28.3701C17.8251 28.9565 18.2865 29.4323 18.8551 29.4323C19.4238 29.4323 19.8852 28.9454 19.8852 28.359C19.8852 27.7726 19.4238 27.2968 18.8551 27.2968ZM29.1449 22.7713C28.5655 22.7713 28.1148 23.2471 28.1148 23.8335C28.1148 24.4199 28.5762 24.8957 29.1449 24.8957C29.7135 24.8957 30.1749 24.4199 30.1749 23.8335C30.1749 23.2471 29.7135 22.7713 29.1449 22.7713ZM24.0054 22.7602C23.426 22.7713 22.9646 23.2471 22.9646 23.8335C22.9646 24.4199 23.4367 24.8957 24.0054 24.8957C24.574 24.8957 25.0354 24.4199 25.0354 23.8224C25.0354 23.2471 24.574 22.7713 24.0054 22.7602ZM18.8659 22.7602C18.2865 22.7602 17.8251 23.2471 17.8251 23.8335C17.8251 24.4199 18.2865 24.8957 18.8551 24.8957C19.4345 24.8957 19.8959 24.4089 19.8852 23.8224C19.8852 23.236 19.4238 22.7602 18.8659 22.7602Z" fill="white"/>
</svg>
