<svg width="48" height="45" viewBox="0 0 48 45" fill="none" xmlns="http://www.w3.org/2000/svg">
<path d="M29.7451 0.545898C30.986 0.405878 32.2422 0.589768 33.3877 1.08008C34.533 1.57059 35.5286 2.34987 36.2734 3.33887L46.0986 16.4355C46.8425 17.4273 47.3097 18.5949 47.4531 19.8203C47.5876 20.9695 47.4334 22.1324 47.0059 23.207L46.917 23.4199L40.3564 38.3701C39.8618 39.5009 39.0739 40.4839 38.0723 41.2197C37.1333 41.9088 36.0376 42.3588 34.8828 42.5293L34.6504 42.5596L18.2539 44.4531C17.0134 44.5963 15.7567 44.4126 14.6104 43.9219C13.5361 43.4621 12.5948 42.7473 11.8691 41.8428L11.7275 41.6592L1.90137 28.5635C1.15745 27.5717 0.691204 26.4042 0.547852 25.1787V25.1777L0.524414 24.9482C0.428099 23.7982 0.619361 22.6413 1.08301 21.5791L7.64355 6.62793C8.13791 5.49666 8.92532 4.51294 9.92676 3.77734C10.9281 3.04194 12.1085 2.58057 13.3486 2.43945H13.3496L29.7441 0.544922L29.7451 0.545898Z" fill="#E8533A" stroke="white"/>
<rect width="30" height="30" transform="translate(9 7)" fill="#E8533A"/>
<g clip-path="url(#clip0_255_125)">
<rect width="32" height="18" transform="translate(8 14)" fill="#E8533A"/>
<path d="M39.3282 28.5296C39.3282 29.5598 38.4335 30.3949 37.3298 30.3949H29.3783C28.2746 30.3949 27.3799 29.5598 27.3799 28.5296C27.3799 26.0402 29.542 24.0222 32.2091 24.0222H34.499C37.1661 24.0222 39.3282 26.0402 39.3282 28.5296Z" fill="white" stroke="white" stroke-miterlimit="10" stroke-linecap="round" stroke-linejoin="round"/>
<path d="M33.3541 21.9115C35.0382 21.9115 36.4034 20.5058 36.4034 18.7717C36.4034 17.0377 35.0382 15.632 33.3541 15.632C31.6699 15.632 30.3047 17.0377 30.3047 18.7717C30.3047 20.5058 31.6699 21.9115 33.3541 21.9115Z" fill="white" stroke="white" stroke-miterlimit="10" stroke-linecap="round" stroke-linejoin="round"/>
<path d="M20.6211 28.5296C20.6211 29.5598 19.7264 30.3949 18.6227 30.3949H10.6713C9.56757 30.3949 8.67285 29.5598 8.67285 28.5296C8.67285 26.0402 10.835 24.0222 13.5021 24.0222H15.792C18.459 24.0222 20.6211 26.0402 20.6211 28.5296Z" fill="white" stroke="white" stroke-miterlimit="10" stroke-linecap="round" stroke-linejoin="round"/>
<path d="M14.647 21.9115C16.3312 21.9115 17.6964 20.5058 17.6964 18.7717C17.6964 17.0377 16.3312 15.632 14.647 15.632C12.9629 15.632 11.5977 17.0377 11.5977 18.7717C11.5977 20.5058 12.9629 21.9115 14.647 21.9115Z" fill="white" stroke="white" stroke-miterlimit="10" stroke-linecap="round" stroke-linejoin="round"/>
<path d="M30.7835 29.2084C30.7835 30.3678 29.7766 31.3077 28.5344 31.3077H19.5852C18.343 31.3077 17.3359 30.3678 17.3359 29.2084C17.3359 26.4066 19.7693 24.1353 22.7711 24.1353H25.3484C28.3502 24.1353 30.7835 26.4066 30.7835 29.2084Z" fill="white" stroke="white" stroke-miterlimit="10" stroke-linecap="round" stroke-linejoin="round"/>
<path d="M24.0599 21.7597C25.9554 21.7597 27.4919 20.1776 27.4919 18.226C27.4919 16.2744 25.9554 14.6923 24.0599 14.6923C22.1645 14.6923 20.6279 16.2744 20.6279 18.226C20.6279 20.1776 22.1645 21.7597 24.0599 21.7597Z" fill="white" stroke="white" stroke-miterlimit="10" stroke-linecap="round" stroke-linejoin="round"/>
</g>
<defs>
<clipPath id="clip0_255_125">
<rect width="32" height="18" fill="white" transform="translate(8 14)"/>
</clipPath>
</defs>
</svg>
