<svg width="48" height="45" viewBox="0 0 48 45" fill="none" xmlns="http://www.w3.org/2000/svg">
<path d="M29.7451 0.545898C30.986 0.405878 32.2422 0.589768 33.3877 1.08008C34.533 1.57059 35.5286 2.34987 36.2734 3.33887L46.0986 16.4355C46.8425 17.4273 47.3097 18.5949 47.4531 19.8203C47.5876 20.9695 47.4334 22.1324 47.0059 23.207L46.917 23.4199L40.3564 38.3701C39.8618 39.5009 39.0739 40.4839 38.0723 41.2197C37.1333 41.9088 36.0376 42.3588 34.8828 42.5293L34.6504 42.5596L18.2539 44.4531C17.0134 44.5963 15.7567 44.4126 14.6104 43.9219C13.5361 43.4621 12.5948 42.7473 11.8691 41.8428L11.7275 41.6592L1.90137 28.5635C1.15745 27.5717 0.691204 26.4042 0.547852 25.1787V25.1777L0.524414 24.9482C0.428099 23.7982 0.619361 22.6413 1.08301 21.5791L7.64355 6.62793C8.13791 5.49666 8.92532 4.51294 9.92676 3.77734C10.9281 3.04194 12.1085 2.58057 13.3486 2.43945H13.3496L29.7441 0.544922L29.7451 0.545898Z" fill="#1D9336" stroke="white"/>
<path d="M31.5 13.5625V30.4375C31.5 31.3492 31.1378 32.2235 30.4932 32.8682C29.8485 33.5128 28.9742 33.875 28.0625 33.875H19.9375C19.4861 33.875 19.0391 33.7861 18.622 33.6133C18.205 33.4406 17.826 33.1874 17.5068 32.8682C16.8622 32.2235 16.5 31.3492 16.5 30.4375V13.5625C16.5 12.6508 16.8622 11.7765 17.5068 11.1318C18.1515 10.4872 19.0258 10.125 19.9375 10.125H28.0625C28.9742 10.125 29.8485 10.4872 30.4932 11.1318C31.1378 11.7765 31.5 12.6508 31.5 13.5625ZM29 21.375C29.0004 20.6182 28.829 19.8712 28.4987 19.1903C28.1684 18.5094 27.6879 17.9124 27.0933 17.4442C26.4988 16.976 25.8057 16.6489 25.0663 16.4875C24.3269 16.3261 23.5606 16.3347 22.825 16.5125C21.9877 16.7218 21.2189 17.1442 20.5932 17.7388C19.9676 18.3333 19.5065 19.0796 19.2548 19.9051C19.0031 20.7307 18.9694 21.6073 19.157 22.4497C19.3445 23.2921 19.7469 24.0717 20.325 24.7125L23.125 27.8625C23.2422 27.9914 23.385 28.0944 23.5443 28.1649C23.7035 28.2353 23.8758 28.2717 24.05 28.2717C24.2242 28.2717 24.3965 28.2353 24.5557 28.1649C24.715 28.0944 24.8578 27.9914 24.975 27.8625L27.75 24.7125C28.5625 23.7913 29.0074 22.6033 29 21.375Z" fill="white"/>
<path d="M24 23.25C25.0355 23.25 25.875 22.4105 25.875 21.375C25.875 20.3395 25.0355 19.5 24 19.5C22.9645 19.5 22.125 20.3395 22.125 21.375C22.125 22.4105 22.9645 23.25 24 23.25Z" fill="white"/>
<path d="M22.75 10.125H25.25V11.375C25.25 11.7065 25.1183 12.0245 24.8839 12.2589C24.6495 12.4933 24.3315 12.625 24 12.625C23.6685 12.625 23.3505 12.4933 23.1161 12.2589C22.8817 12.0245 22.75 11.7065 22.75 11.375V10.125Z" fill="white"/>
</svg>
