<svg width="48" height="45" viewBox="0 0 48 45" fill="none" xmlns="http://www.w3.org/2000/svg">
<path d="M29.7451 0.545898C30.986 0.405878 32.2422 0.589768 33.3877 1.08008C34.533 1.57059 35.5286 2.34987 36.2734 3.33887L46.0986 16.4355C46.8425 17.4273 47.3097 18.5949 47.4531 19.8203C47.5876 20.9695 47.4334 22.1324 47.0059 23.207L46.917 23.4199L40.3564 38.3701C39.8618 39.5009 39.0739 40.4839 38.0723 41.2197C37.1333 41.9088 36.0376 42.3588 34.8828 42.5293L34.6504 42.5596L18.2539 44.4531C17.0134 44.5963 15.7567 44.4126 14.6104 43.9219C13.5361 43.4621 12.5948 42.7473 11.8691 41.8428L11.7275 41.6592L1.90137 28.5635C1.15745 27.5717 0.691204 26.4042 0.547852 25.1787V25.1777L0.524414 24.9482C0.428099 23.7982 0.619361 22.6413 1.08301 21.5791L7.64355 6.62793C8.13791 5.49666 8.92532 4.51294 9.92676 3.77734C10.9281 3.04194 12.1085 2.58057 13.3486 2.43945H13.3496L29.7441 0.544922L29.7451 0.545898Z" fill="#0780DB" stroke="white"/>
<path d="M20.2873 21.25C23.5596 21.25 26.2123 18.6197 26.2123 15.375C26.2123 12.1303 23.5596 9.5 20.2873 9.5C17.015 9.5 14.3623 12.1303 14.3623 15.375C14.3623 18.6197 17.015 21.25 20.2873 21.25Z" fill="white"/>
<path d="M20.2875 34.5C25.1407 34.5 29.075 31.8697 29.075 28.625C29.075 25.3803 25.1407 22.75 20.2875 22.75C15.4343 22.75 11.5 25.3803 11.5 28.625C11.5 31.8697 15.4343 34.5 20.2875 34.5Z" fill="white"/>
<path d="M29.4871 12C28.7994 12.0008 28.1206 12.1545 27.4996 12.45C28.0235 13.7214 28.1933 15.1111 27.9908 16.4712C27.7883 17.8314 27.2212 19.1113 26.3496 20.175C26.9151 20.6899 27.5976 21.0591 28.3381 21.2504C29.0785 21.4418 29.8545 21.4496 30.5986 21.2731C31.3427 21.0966 32.0325 20.7412 32.6082 20.2378C33.1839 19.7343 33.628 19.098 33.902 18.384C34.176 17.67 34.2717 16.8999 34.1807 16.1406C34.0897 15.3813 33.8147 14.6556 33.3797 14.0266C32.9447 13.3976 32.3628 12.8842 31.6845 12.5311C31.0061 12.1779 30.2519 11.9956 29.4871 12Z" fill="white"/>
<path d="M29.4879 22.625C28.7866 22.6244 28.0871 22.6956 27.4004 22.8375C28.433 23.4224 29.2996 24.2607 29.9185 25.2732C30.5374 26.2858 30.8882 27.4393 30.9379 28.625C30.9323 29.8277 30.5714 31.0019 29.9004 32C33.5754 31.8625 36.5004 29.825 36.5004 27.325C36.5004 24.825 33.3629 22.625 29.4879 22.625Z" fill="white"/>
</svg>
