<svg width="772" height="568" viewBox="0 0 772 568" fill="none" xmlns="http://www.w3.org/2000/svg">
<path d="M173.846 206.657C173.846 206.657 191.733 188.164 194.867 166.048C198.001 143.933 218.019 138.686 231.701 142.891C245.384 147.096 258.034 185.402 291.763 185.201C325.492 185 382.276 157.628 384.379 150.259C386.481 142.891 389.643 129.234 412.795 126.051C435.946 122.868 436.997 100.781 470.678 100.781C504.359 100.781 563.647 106.43 568.912 108.532C574.177 110.635 599.048 114.133 604.265 143.302C604.265 143.302 608.498 155.573 601.131 190.285C593.764 224.997 645.332 247.113 657.963 247.113C670.595 247.113 707.429 325.014 666.381 391.332C625.333 457.65 630.598 482.91 587.448 456.599C544.298 430.288 548.512 457.65 544.298 430.278C540.085 402.906 519.045 417.643 512.767 402.906C506.49 388.169 528.552 358.694 513.818 352.377C499.085 346.059 462.222 357.643 454.884 319.748C447.546 281.854 402.256 327.117 423.353 361.858C444.45 396.598 400.201 370.278 400.201 391.332C400.201 412.387 374.948 429.227 387.57 445.015C400.192 460.804 432.831 549.238 331.798 547.125C230.765 545.013 287.588 565.026 266.548 567.129C245.508 569.231 233.832 540.808 200.151 540.808C166.47 540.808 50.7128 534.5 53.8659 483.971C57.019 433.442 87.3844 442.875 86.9353 398.701C86.4862 354.527 35.5396 303.424 112.581 256.842C189.621 210.26 173.846 206.657 173.846 206.657Z" fill="#A6FF00" fill-opacity="0.1"/>
<path d="M163.881 89.6951H0.980469V470.237H163.881V89.6951Z" fill="url(#paint0_linear_332_227)" fill-opacity="0.3"/>
<path d="M86.9343 157.752C101.098 157.752 112.58 146.268 112.58 132.101C112.58 117.934 101.098 106.449 86.9343 106.449C72.7708 106.449 61.2891 117.934 61.2891 132.101C61.2891 146.268 72.7708 157.752 86.9343 157.752Z" fill="#D5FE81"/>
<path d="M103.934 185.201H20.7776C18.3397 185.201 16.3633 187.178 16.3633 189.616V190.964C16.3633 193.403 18.3397 195.379 20.7776 195.379H103.934C106.372 195.379 108.348 193.403 108.348 190.964V189.616C108.348 187.178 106.372 185.201 103.934 185.201Z" fill="#D5FE81"/>
<path d="M148.134 185.201H134.26C131.822 185.201 129.846 187.178 129.846 189.616V190.964C129.846 193.403 131.822 195.379 134.26 195.379H148.134C150.572 195.379 152.548 193.403 152.548 190.964V189.616C152.548 187.178 150.572 185.201 148.134 185.201Z" fill="#D5FE81"/>
<path d="M75.5939 206.657H20.7776C18.3397 206.657 16.3633 208.634 16.3633 211.072V212.42C16.3633 214.859 18.3397 216.835 20.7776 216.835H75.5939C78.0319 216.835 80.0083 214.859 80.0083 212.42V211.072C80.0083 208.634 78.0319 206.657 75.5939 206.657Z" fill="#D5FE81"/>
<path d="M148.124 206.657H145.602C143.164 206.657 141.188 208.634 141.188 211.072V212.42C141.188 214.859 143.164 216.835 145.602 216.835H148.124C150.562 216.835 152.539 214.859 152.539 212.42V211.072C152.539 208.634 150.562 206.657 148.124 206.657Z" fill="#D5FE81"/>
<path d="M114.358 230.502H21.5706C19.1326 230.502 17.1562 232.479 17.1562 234.918V236.265C17.1562 238.704 19.1326 240.681 21.5706 240.681H114.358C116.796 240.681 118.772 238.704 118.772 236.265V234.918C118.772 232.479 116.796 230.502 114.358 230.502Z" fill="#D5FE81"/>
<path d="M148.918 230.502H141.465C139.027 230.502 137.051 232.479 137.051 234.918V236.265C137.051 238.704 139.027 240.681 141.465 240.681H148.918C151.356 240.681 153.332 238.704 153.332 236.265V234.918C153.332 232.479 151.356 230.502 148.918 230.502Z" fill="#D5FE81"/>
<path d="M97.9618 251.758H21.5706C19.1326 251.758 17.1562 253.735 17.1562 256.173V257.521C17.1562 259.959 19.1326 261.936 21.5706 261.936H97.9618C100.4 261.936 102.376 259.959 102.376 257.521V256.173C102.376 253.735 100.4 251.758 97.9618 251.758Z" fill="#D5FE81"/>
<path d="M148.927 251.758H135.053C132.615 251.758 130.639 253.735 130.639 256.173V257.521C130.639 259.959 132.615 261.936 135.053 261.936H148.927C151.365 261.936 153.341 259.959 153.341 257.521V256.173C153.341 253.735 151.365 251.758 148.927 251.758Z" fill="#D5FE81"/>
<path d="M63.5547 274.007H21.5706C19.1326 274.007 17.1562 275.984 17.1562 278.423V279.77C17.1562 282.209 19.1326 284.186 21.5706 284.186H63.5547C65.9927 284.186 67.9691 282.209 67.9691 279.77V278.423C67.9691 275.984 65.9927 274.007 63.5547 274.007Z" fill="#D5FE81"/>
<path d="M148.928 274.007H126.426C123.988 274.007 122.012 275.984 122.012 278.423V279.77C122.012 282.209 123.988 284.186 126.426 284.186H148.928C151.366 284.186 153.342 282.209 153.342 279.77V278.423C153.342 275.984 151.366 274.007 148.928 274.007Z" fill="#D5FE81"/>
<path d="M95.9362 295.463H21.5706C19.1326 295.463 17.1562 297.44 17.1562 299.879V301.226C17.1562 303.665 19.1326 305.642 21.5706 305.642H95.9362C98.3741 305.642 100.351 303.665 100.351 301.226V299.879C100.351 297.44 98.3741 295.463 95.9362 295.463Z" fill="#D5FE81"/>
<path d="M148.927 295.463H135.053C132.615 295.463 130.639 297.44 130.639 299.879V301.226C130.639 303.665 132.615 305.642 135.053 305.642H148.927C151.365 305.642 153.341 303.665 153.341 301.226V299.879C153.341 297.44 151.365 295.463 148.927 295.463Z" fill="#D5FE81"/>
<path d="M437.503 456.905C434.536 451.403 433.375 445.107 434.187 438.909C434.998 432.711 437.74 426.926 442.023 422.374C448.071 415.933 452.992 407.57 452.591 397.621C451.635 372.772 475.446 363.836 479.421 374.769C483.396 385.703 481.408 423.511 497.298 426.446C513.188 429.38 537.046 447.472 518.166 470.237C499.285 493.002 491.345 457.249 499.285 493.031C507.225 528.814 461.534 558.269 450.555 531.107C439.577 503.945 405.896 513.56 429.697 495.019C445.596 482.623 443.561 468.22 437.503 456.905Z" fill="#EDFFC8"/>
<path d="M545.502 166.067L548.12 163.296" stroke="white" stroke-width="0.34182" stroke-miterlimit="10" stroke-linecap="round"/>
<path d="M552.286 158.89C556.165 154.771 561.335 149.256 566.79 143.397" stroke="white" stroke-width="0.34182" stroke-miterlimit="10" stroke-linecap="round" stroke-dasharray="2.17 2.17"/>
<path d="M568.854 141.17L571.453 138.361" stroke="white" stroke-width="0.34182" stroke-miterlimit="10" stroke-linecap="round"/>
<path d="M571.453 143.311C575.506 143.311 578.792 140.025 578.792 135.971C578.792 131.918 575.506 128.631 571.453 128.631C567.401 128.631 564.115 131.918 564.115 135.971C564.115 140.025 567.401 143.311 571.453 143.311Z" fill="white"/>
<path d="M537.065 181.292C541.117 181.292 544.403 178.006 544.403 173.952C544.403 169.898 541.117 166.612 537.065 166.612C533.012 166.612 529.727 169.898 529.727 173.952C529.727 178.006 533.012 181.292 537.065 181.292Z" fill="white"/>
<path d="M176.149 361.361C176.149 361.361 176.522 360.09 177.43 357.767" stroke="white" stroke-width="0.34182" stroke-miterlimit="10" stroke-linecap="round"/>
<path d="M180.525 350.733C195.154 320.207 252.33 232.863 435.086 207.66" stroke="white" stroke-width="0.34182" stroke-miterlimit="10" stroke-linecap="round" stroke-dasharray="2.74 2.74"/>
<path d="M438.908 207.144L442.73 206.657" stroke="white" stroke-width="0.34182" stroke-miterlimit="10" stroke-linecap="round"/>
<path d="M168.754 369.226C168.754 369.226 169.451 370.402 170.732 372.485" stroke="white" stroke-width="0.34182" stroke-miterlimit="10" stroke-linecap="round"/>
<path d="M174.993 379.29C186.182 396.914 210.566 433.126 232.676 451.237" stroke="#A6FF00" stroke-width="0.34182" stroke-miterlimit="10" stroke-linecap="round" stroke-dasharray="2.88 2.88"/>
<path d="M235.848 453.741C236.889 454.525 237.931 455.261 238.963 455.939" stroke="white" stroke-width="0.34182" stroke-miterlimit="10" stroke-linecap="round"/>
<path d="M168.753 400.937C186.869 400.937 201.555 386.248 201.555 368.127C201.555 350.006 186.869 335.317 168.753 335.317C150.637 335.317 135.951 350.006 135.951 368.127C135.951 386.248 150.637 400.937 168.753 400.937Z" stroke="#A6FF00" stroke-width="1.36728" stroke-miterlimit="10"/>
<path d="M168.754 382.243C175.941 382.243 181.768 376.415 181.768 369.226C181.768 362.037 175.941 356.209 168.754 356.209C161.567 356.209 155.74 362.037 155.74 369.226C155.74 376.415 161.567 382.243 168.754 382.243Z" fill="#A6FF00"/>
<path d="M501.483 235.587C519.599 235.587 534.284 220.897 534.284 202.777C534.284 184.656 519.599 169.967 501.483 169.967C483.367 169.967 468.681 184.656 468.681 202.777C468.681 220.897 483.367 235.587 501.483 235.587Z" stroke="white" stroke-width="1.36728" stroke-miterlimit="10"/>
<path d="M501.482 216.902C508.67 216.902 514.496 211.075 514.496 203.885C514.496 196.696 508.67 190.868 501.482 190.868C494.295 190.868 488.469 196.696 488.469 203.885C488.469 211.075 494.295 216.902 501.482 216.902Z" fill="white"/>
<path d="M454.587 212.898C458.64 212.898 461.925 209.612 461.925 205.558C461.925 201.504 458.64 198.218 454.587 198.218C450.534 198.218 447.249 201.504 447.249 205.558C447.249 209.612 450.534 212.898 454.587 212.898Z" fill="white"/>
<path d="M238.963 463.289C243.016 463.289 246.301 460.003 246.301 455.949C246.301 451.895 243.016 448.609 238.963 448.609C234.91 448.609 231.625 451.895 231.625 455.949C231.625 460.003 234.91 463.289 238.963 463.289Z" fill="#A6FF00"/>
<path d="M336.528 455.949H259.86C258.641 455.949 257.652 456.937 257.652 458.157V458.826C257.652 460.045 258.641 461.033 259.86 461.033H336.528C337.747 461.033 338.735 460.045 338.735 458.826V458.157C338.735 456.937 337.747 455.949 336.528 455.949Z" fill="#F8F8FF"/>
<path d="M336.528 470.237H259.86C258.641 470.237 257.652 471.225 257.652 472.445V473.114C257.652 474.333 258.641 475.322 259.86 475.322H336.528C337.747 475.322 338.735 474.333 338.735 473.114V472.445C338.735 471.225 337.747 470.237 336.528 470.237Z" fill="#F8F8FF"/>
<path d="M336.528 488.243H259.86C258.641 488.243 257.652 489.231 257.652 490.451V491.12C257.652 492.339 258.641 493.327 259.86 493.327H336.528C337.747 493.327 338.735 492.339 338.735 491.12V490.451C338.735 489.231 337.747 488.243 336.528 488.243Z" fill="#F8F8FF"/>
<path d="M307.366 502.588H259.86C258.641 502.588 257.652 503.577 257.652 504.796V505.465C257.652 506.684 258.641 507.673 259.86 507.673H307.366C308.585 507.673 309.574 506.684 309.574 505.465V504.796C309.574 503.577 308.585 502.588 307.366 502.588Z" fill="#F8F8FF"/>
<path d="M658.766 146.494H582.098C580.879 146.494 579.891 147.482 579.891 148.702V149.371C579.891 150.59 580.879 151.578 582.098 151.578H658.766C659.985 151.578 660.973 150.59 660.973 149.371V148.702C660.973 147.482 659.985 146.494 658.766 146.494Z" fill="#EDFFC8"/>
<path d="M658.766 160.782H582.098C580.879 160.782 579.891 161.77 579.891 162.99V163.659C579.891 164.878 580.879 165.866 582.098 165.866H658.766C659.985 165.866 660.973 164.878 660.973 163.659V162.99C660.973 161.77 659.985 160.782 658.766 160.782Z" fill="#EDFFC8"/>
<path d="M658.766 178.788H582.098C580.879 178.788 579.891 179.776 579.891 180.996V181.665C579.891 182.884 580.879 183.872 582.098 183.872H658.766C659.985 183.872 660.973 182.884 660.973 181.665V180.996C660.973 179.776 659.985 178.788 658.766 178.788Z" fill="#EDFFC8"/>
<path d="M629.605 193.133H582.098C580.879 193.133 579.891 194.122 579.891 195.341V196.01C579.891 197.229 580.879 198.218 582.098 198.218H629.605C630.824 198.218 631.812 197.229 631.812 196.01V195.341C631.812 194.122 630.824 193.133 629.605 193.133Z" fill="#EDFFC8"/>
<path d="M246.301 455.939C246.301 455.939 247.629 456.159 250.123 456.465" stroke="#D5FE81" stroke-width="0.34182" stroke-miterlimit="10"/>
<path d="M257.547 457.277C310.099 462.285 528.38 468.574 502.362 224.434" stroke="#D5FE81" stroke-width="0.34182" stroke-miterlimit="10" stroke-dasharray="2.69 2.69"/>
<path d="M501.97 220.687C501.827 219.426 501.674 218.164 501.512 216.864" stroke="#D5FE81" stroke-width="0.34182" stroke-miterlimit="10"/>
<path d="M656.052 219.894C656.052 219.894 640.526 204.095 655.097 192.913C669.668 181.731 673.576 182.4 673.7 193.544C673.824 204.688 662.922 206.38 669.525 218.126C676.127 229.871 668.139 232.949 663.199 230.397C658.259 227.845 656.052 219.894 656.052 219.894Z" fill="#EDFFC8"/>
<path d="M653.415 223.506C653.415 223.506 654.371 232.108 662.139 235.807C669.907 239.505 683.092 248.231 681.927 255.16C680.761 262.089 665.32 242.736 660.486 244.437C655.651 246.138 645.083 239.802 641.911 231.668C638.739 223.535 639.341 217.065 644.137 217.122C648.934 217.18 653.415 223.506 653.415 223.506Z" fill="#EDFFC8"/>
<path d="M626.279 80.9596H748.486C768.112 80.9596 779.301 57.9648 766.64 42.9216C759.264 34.1385 745.773 27.5535 721.637 28.5093C721.637 28.5093 687.899 -35.5245 640.631 28.4137C640.631 28.4137 601.742 24.5908 598.761 49.4397L598.675 50.1756C598.243 54.0557 598.635 57.9833 599.826 61.7012C601.018 65.419 602.98 68.8433 605.586 71.7496C608.193 74.6559 611.383 76.9787 614.949 78.5659C618.515 80.1531 622.376 80.9688 626.279 80.9596Z" fill="#F8F8FF"/>
<defs>
<linearGradient id="paint0_linear_332_227" x1="83.1524" y1="210.193" x2="79.4814" y2="564.883" gradientUnits="userSpaceOnUse">
<stop offset="0.03" stop-color="white"/>
<stop offset="1" stop-color="white" stop-opacity="0"/>
</linearGradient>
</defs>
</svg>
