<svg width="48" height="45" viewBox="0 0 48 45" fill="none" xmlns="http://www.w3.org/2000/svg">
<path d="M29.7451 0.545898C30.986 0.405878 32.2422 0.589767 33.3877 1.08008C34.533 1.57059 35.5286 2.34987 36.2734 3.33887L46.0986 16.4355C46.8425 17.4273 47.3097 18.5949 47.4531 19.8203C47.5876 20.9695 47.4334 22.1324 47.0059 23.207L46.917 23.4199L40.3564 38.3701C39.8618 39.5009 39.0739 40.4839 38.0723 41.2197C37.1333 41.9088 36.0376 42.3588 34.8828 42.5293L34.6504 42.5596L18.2539 44.4531C17.0134 44.5963 15.7567 44.4126 14.6104 43.9219C13.5361 43.4621 12.5948 42.7473 11.8691 41.8428L11.7275 41.6592L1.90137 28.5635C1.15745 27.5717 0.691204 26.4042 0.547852 25.1787V25.1777L0.524414 24.9482C0.428099 23.7982 0.619361 22.6413 1.08301 21.5791L7.64355 6.62793C8.13791 5.49666 8.92532 4.51295 9.92676 3.77734C10.9281 3.04194 12.1085 2.58057 13.3486 2.43945H13.3496L29.7441 0.544922L29.7451 0.545898Z" fill="#332A7C" stroke="white"/>
<path d="M34.625 24.5C35.6605 24.5 36.5 23.6605 36.5 22.625C36.5 21.5895 35.6605 20.75 34.625 20.75C33.5895 20.75 32.75 21.5895 32.75 22.625C32.75 23.6605 33.5895 24.5 34.625 24.5Z" fill="white"/>
<path d="M32.5269 8.31089L13.2084 13.4873C12.5416 13.6659 12.1458 14.3514 12.3245 15.0182L13.9421 21.0552C14.1208 21.7221 14.8062 22.1178 15.4731 21.9391L34.7916 16.7627C35.4584 16.5841 35.8541 15.8986 35.6755 15.2318L34.0578 9.19477C33.8792 8.52794 33.1937 8.13221 32.5269 8.31089Z" fill="white" fill-opacity="0.3"/>
<path fill-rule="evenodd" clip-rule="evenodd" d="M36.5 18.671C35.9141 18.3929 35.2735 18.2491 34.625 18.25C32.2087 18.25 30.25 20.2087 30.25 22.625C30.25 25.0413 32.2087 27 34.625 27C35.2735 27.0009 35.9141 26.8571 36.5 26.579V29.5C36.5 30.8808 35.3808 32 34 32H14C12.6193 32 11.5 30.8808 11.5 29.5V14.5C11.5 13.1193 12.6193 12 14 12H34C35.3808 12 36.5 13.1193 36.5 14.5V18.671Z" fill="white"/>
</svg>
