<svg width="260" height="301" viewBox="0 0 260 301" fill="none" xmlns="http://www.w3.org/2000/svg">
<g clip-path="url(#clip0_241_110)">
<path d="M7.3744 228.004C9.45366 223.456 12.6767 217.014 16.483 214.342C26.2808 207.483 49.5958 195.61 90.3741 215.055C136.08 236.845 137.371 196.864 182.236 194.106C214.557 192.124 249.621 200.635 257.226 216.931C264.376 232.226 258.324 269.497 230.158 266.867C179.399 262.126 182.729 273.154 134.001 292.2C84.1364 311.683 73.4712 261.228 26.6672 276.193C-4.26411 286.076 -2.09397 248.832 7.3744 228.004Z" fill="#A6FF00" fill-opacity="0.5"/>
<path d="M216.902 33.7468L167.678 161.803H170.78L216.902 33.7468Z" fill="#A6FF00" fill-opacity="0.5"/>
<path d="M217.333 12.0018C217.333 12.0018 214.61 29.0817 216.902 33.7468C216.902 33.7468 222.708 23.996 217.333 12.0018Z" fill="#A6FF00" fill-opacity="0.5"/>
<path d="M204.924 16.6517C204.924 16.6517 209.654 31.0713 213.711 33.8643C213.711 33.8643 214.888 24.0263 204.924 16.6517Z" fill="#A6FF00" fill-opacity="0.5"/>
<path d="M230.495 7.88246C230.495 7.88246 216.577 26.141 217.66 33.0192C217.66 33.0192 232.457 25.2504 230.495 7.88246Z" fill="#A6FF00" fill-opacity="0.5"/>
<path d="M198.654 22.844C198.654 22.844 203.26 41.2957 204.858 46.4875C205.237 47.7078 205.615 48.2649 205.994 48.3634C207.13 48.6552 208.195 44.786 208.441 42.1029C208.778 38.5293 206.998 27.4408 198.654 22.844Z" fill="#A6FF00" fill-opacity="0.5"/>
<path d="M206.252 48.0678C206.252 48.0678 206.21 47.9731 206.218 48.1247C206.293 49.7656 206.774 59.7286 206.388 61.415C205.964 63.2605 207.483 59.0578 207.483 59.0578L206.252 48.0678Z" fill="#A6FF00" fill-opacity="0.5"/>
<path d="M213.713 33.6899C213.713 33.6899 213.546 33.599 213.561 33.6558C213.982 35.255 213.41 41.8149 213.024 43.5089C212.599 45.3507 213.781 42.0537 213.781 42.0537L213.713 33.6899Z" fill="#A6FF00" fill-opacity="0.5"/>
<path d="M194.471 30.0557C194.471 30.0557 195.482 54.0934 198.232 59.6149C201.735 66.6485 203.719 53.8925 203.36 51.5088C203 49.1251 202.17 35.418 194.471 30.0557Z" fill="#A6FF00" fill-opacity="0.5"/>
<path d="M213.713 33.6899C213.713 33.6899 213.546 33.599 213.561 33.6558C213.982 35.255 213.41 41.8149 213.024 43.5089C212.599 45.3507 213.781 42.0537 213.781 42.0537L213.713 33.6899Z" fill="#A6FF00" fill-opacity="0.5"/>
<path d="M200.529 60.873C200.529 60.873 200.484 60.7631 200.491 60.9337C200.563 62.7641 201.025 73.8677 200.631 75.7474C200.203 77.8052 201.737 73.1212 201.737 73.1212L200.529 60.873Z" fill="#A6FF00" fill-opacity="0.5"/>
<path d="M180.545 39.2645C180.545 39.2645 187.362 66.8076 191.437 72.727C196.599 80.2608 197.05 64.7688 196.115 62.0744C195.179 59.3799 189.441 44.1797 180.545 39.2645Z" fill="#A6FF00" fill-opacity="0.5"/>
<path d="M194.262 74.493C194.262 74.493 194.137 74.0269 194.145 74.2164C194.224 76.259 195.683 87.374 195.239 89.4735C194.758 91.7662 196.47 86.9458 196.47 86.9458L194.262 74.493Z" fill="#A6FF00" fill-opacity="0.5"/>
<path d="M172.533 51.903C172.533 51.903 181.623 80.5261 185.683 86.8321C190.834 94.8548 190.538 77.483 189.114 72.6967C187.652 67.7967 181.426 57.1402 172.533 51.903Z" fill="#A6FF00" fill-opacity="0.5"/>
<path d="M188.504 88.6966C188.504 88.6966 188.379 88.2001 188.387 88.401C188.467 90.58 189.902 102.423 189.466 104.655C188.982 107.099 190.697 101.96 190.697 101.96L188.504 88.6966Z" fill="#A6FF00" fill-opacity="0.5"/>
<path d="M167.043 65.8261C167.043 65.8261 176.133 94.4493 180.189 100.755C185.343 108.782 185.044 91.4062 183.62 86.6237C182.162 81.7199 175.936 71.0672 167.043 65.8261Z" fill="#A6FF00" fill-opacity="0.5"/>
<path d="M183.014 102.639C183.014 102.639 182.885 102.142 182.893 102.343C182.972 104.518 184.408 116.744 183.968 118.987C183.484 121.432 185.43 115.815 185.43 115.815L183.014 102.639Z" fill="#A6FF00" fill-opacity="0.5"/>
<path d="M157.695 77.9568C157.695 77.9568 169.735 107.63 173.784 113.932C178.935 121.958 177.787 102.252 176.363 97.4658C174.905 92.5658 166.588 83.194 157.695 77.9568Z" fill="#A6FF00" fill-opacity="0.5"/>
<path d="M176.029 115.675C176.029 115.675 175.934 115.406 175.942 115.649C176.014 118.267 177.979 132.827 177.525 135.518C177.033 138.462 179.324 131.781 179.324 131.781L176.029 115.675Z" fill="#A6FF00" fill-opacity="0.5"/>
<path d="M145.65 93.1456C145.65 93.1456 150.54 103.851 156.8 112.852C161.008 118.915 166.647 123.656 168.768 125.884C175.468 132.944 169.768 114.496 167.401 110.028C164.973 105.462 155.479 96.8784 145.65 93.1456Z" fill="#A6FF00" fill-opacity="0.5"/>
<path d="M171.406 127.127C171.406 127.127 171.311 126.858 171.319 127.101C171.391 129.723 173.478 145.454 172.894 148.13C172.758 148.762 174.826 143.355 174.826 143.355L171.406 127.127Z" fill="#A6FF00" fill-opacity="0.5"/>
<path d="M139.992 107.914C139.992 107.914 145.48 119.965 152.449 130.129C157.13 136.95 163.372 142.343 165.705 144.859C173.128 152.84 166.655 132.107 164.008 127.074C161.304 121.917 150.801 112.192 139.992 107.914Z" fill="#A6FF00" fill-opacity="0.5"/>
<path d="M128.006 132.304C128.006 132.304 140.614 139.732 149.518 146.727C159.967 154.936 161.819 155.868 164.929 156.88C174.776 160.075 160.005 140.13 155.544 137.227C150.976 134.252 139.175 131.053 128.006 132.304Z" fill="#A6FF00" fill-opacity="0.5"/>
<path d="M168.787 146.78C168.743 146.59 168.684 146.404 168.609 146.223C168.704 147.588 170.742 153.822 170.185 155.216C170.052 155.546 171.226 152.795 171.226 152.795L168.787 146.78Z" fill="#A6FF00" fill-opacity="0.5"/>
<path d="M166.909 156.232C166.909 156.232 166.716 155.898 166.727 155.959C166.833 156.634 168.931 159.715 168.386 160.4C168.257 160.563 169.408 159.207 169.408 159.207L166.909 156.232Z" fill="#A6FF00" fill-opacity="0.5"/>
<path d="M227.682 18.827C227.682 18.827 219.528 34.3342 215.627 37.7221C215.627 37.7221 217.952 27.6833 227.682 18.827Z" fill="#A6FF00" fill-opacity="0.5"/>
<path d="M231.896 26.3191C231.896 26.3191 221.136 37.4379 217.318 38.715C217.318 38.715 222.231 29.8927 231.896 26.3191Z" fill="#A6FF00" fill-opacity="0.5"/>
<path d="M222.75 11.5849C222.75 11.5849 220.098 31.2456 215.618 36.8808C215.618 36.8808 211.85 26.0311 222.75 11.5849Z" fill="#A6FF00" fill-opacity="0.5"/>
<path d="M231.852 33.4171C231.852 33.4171 218.884 48.0565 215.07 52.0887C214.173 53.0361 213.639 53.4112 213.374 53.3885C212.578 53.3165 214.184 49.6822 215.563 47.2985C217.403 44.1228 224.656 35.0466 231.852 33.4171Z" fill="#A6FF00" fill-opacity="0.5"/>
<path d="M213.407 53.074C213.407 53.074 213.487 53.0019 213.407 53.1308C212.438 54.5254 206.541 62.9839 205.802 64.5566C204.992 66.2695 206.529 62.2146 206.529 62.2146L213.407 53.074Z" fill="#A6FF00" fill-opacity="0.5"/>
<path d="M217.418 38.5596C217.418 38.5596 217.562 38.5293 217.52 38.5786C216.384 39.8367 212.975 45.6614 212.252 47.2265C211.441 48.9394 212.653 45.7599 212.653 45.7599L217.418 38.5596Z" fill="#A6FF00" fill-opacity="0.5"/>
<path d="M230.071 40.8145C230.071 40.8145 215.926 61.2785 211.286 65.2842C205.378 70.3775 211.495 58.8077 213.04 56.8522C214.585 54.8968 222.807 43.2891 230.071 40.8145Z" fill="#A6FF00" fill-opacity="0.5"/>
<path d="M217.418 38.5596C217.418 38.5596 217.562 38.5293 217.52 38.5786C216.384 39.8367 212.975 45.6614 212.252 47.2265C211.441 48.9394 212.653 45.7599 212.653 45.7599L217.418 38.5596Z" fill="#A6FF00" fill-opacity="0.5"/>
<path d="M209.317 65.7162C209.317 65.7162 209.4 65.6328 209.317 65.7806C208.241 67.3381 201.712 76.7933 200.863 78.529C199.939 80.4238 201.742 75.9482 201.742 75.9482L209.317 65.7162Z" fill="#A6FF00" fill-opacity="0.5"/>
<path d="M232.559 52.6609C232.559 52.6609 213.221 74.5271 207.639 78.4987C200.534 83.5578 209.044 70.0553 211.078 67.9938C213.111 65.9322 224.871 54.4155 232.559 52.6609Z" fill="#A6FF00" fill-opacity="0.5"/>
<path d="M205.074 79.2225C205.074 79.2225 205.407 78.8435 205.294 79.0179C204.093 80.7573 197.011 89.9434 196.064 91.8799C195.034 93.9945 196.821 89.3522 196.821 89.3522L205.074 79.2225Z" fill="#A6FF00" fill-opacity="0.5"/>
<path d="M229.833 65.8148C229.833 65.8148 208.624 87.9766 202.841 92.2854C195.463 97.769 205.446 82.8568 208.938 79.124C212.51 75.3002 221.967 67.8536 229.833 65.8148Z" fill="#A6FF00" fill-opacity="0.5"/>
<path d="M200.218 93.1191C200.218 93.1191 200.567 92.7401 200.449 92.8993C199.177 94.7562 191.689 104.571 190.667 106.625C189.553 108.869 191.511 103.954 191.511 103.954L200.218 93.1191Z" fill="#A6FF00" fill-opacity="0.5"/>
<path d="M224.993 79.3741C224.993 79.3741 203.784 101.536 197.997 105.845C190.619 111.328 200.603 96.4161 204.094 92.6833C207.67 88.8596 217.127 81.4091 224.993 79.3741Z" fill="#A6FF00" fill-opacity="0.5"/>
<path d="M195.376 106.678C195.376 106.678 195.728 106.299 195.611 106.459C194.335 108.316 186.631 118.472 185.609 120.526C184.495 122.769 186.597 117.377 186.597 117.377L195.376 106.678Z" fill="#A6FF00" fill-opacity="0.5"/>
<path d="M223.289 92.4635C223.289 92.4635 199.879 114.705 194.092 119.014C186.714 124.497 198.489 107.808 201.977 104.079C205.541 100.255 215.426 94.4947 223.289 92.4635Z" fill="#A6FF00" fill-opacity="0.5"/>
<path d="M191.861 119.889C191.861 119.889 192.062 119.681 191.922 119.889C190.407 122.133 181.09 134.146 179.802 136.601C178.412 139.277 180.938 132.869 180.938 132.869L191.861 119.889Z" fill="#A6FF00" fill-opacity="0.5"/>
<path d="M221.361 108.945C221.361 108.945 212.612 116.82 204.064 122.845C198.322 126.892 192.52 129.416 190.096 130.746C182.412 134.961 195.982 120.636 199.815 117.441C203.727 114.167 213.817 109.418 221.361 108.945Z" fill="#A6FF00" fill-opacity="0.5"/>
<path d="M187.932 131.069C187.932 131.069 188.137 130.864 187.997 131.069C186.482 133.312 176.434 146.307 175.241 148.778C174.961 149.365 176.873 144.116 176.873 144.116L187.932 131.069Z" fill="#A6FF00" fill-opacity="0.5"/>
<path d="M216.119 123.281C216.119 123.281 206.272 132.145 196.694 138.97C190.255 143.552 183.768 146.455 181.048 147.97C172.443 152.779 187.733 136.696 192.032 133.092C196.451 129.401 207.726 123.94 216.119 123.281Z" fill="#A6FF00" fill-opacity="0.5"/>
<path d="M208.941 147.694C208.941 147.694 197.791 150.574 188.925 154.136C178.525 158.305 176.976 158.585 174.688 158.585C167.45 158.585 186.876 145.507 190.974 144.249C195.174 142.942 203.487 143.483 208.941 147.694Z" fill="#A6FF00" fill-opacity="0.5"/>
<path d="M178.271 148.766C178.271 148.766 178.76 148.232 178.681 148.338C177.859 149.475 173.212 154.299 172.731 155.66C172.617 155.978 173.522 153.276 173.522 153.276L178.271 148.766Z" fill="#A6FF00" fill-opacity="0.5"/>
<path d="M173.962 157.456C173.962 157.456 174.257 157.217 174.219 157.27C173.776 157.82 170.879 159.893 170.811 160.639C170.811 160.817 170.924 159.32 170.924 159.32L173.962 157.456Z" fill="#A6FF00" fill-opacity="0.5"/>
<path d="M16.2266 68.3538L67.2421 196.41H64.0305L16.2266 68.3538Z" fill="#A6FF00" fill-opacity="0.5"/>
<path d="M15.7794 46.6088C15.7794 46.6088 18.6009 63.6887 16.2263 68.3538C16.2263 68.3538 10.2082 58.603 15.7794 46.6088Z" fill="#A6FF00" fill-opacity="0.5"/>
<path d="M28.6412 51.2587C28.6412 51.2587 23.7366 65.6783 19.5516 68.4713C19.5326 68.4713 18.3131 58.6334 28.6412 51.2587Z" fill="#A6FF00" fill-opacity="0.5"/>
<path d="M2.14087 42.4895C2.14087 42.4895 16.5631 60.748 15.442 67.6262C15.442 67.6262 0.10706 59.8574 2.14087 42.4895Z" fill="#A6FF00" fill-opacity="0.5"/>
<path d="M35.1357 57.451C35.1357 57.451 30.3598 75.9028 28.6972 81.0946C28.3185 82.3148 27.9019 82.8719 27.5042 82.9705C26.3188 83.2623 25.2318 79.393 24.9705 76.71C24.6447 73.1363 26.4892 62.044 35.1357 57.451Z" fill="#A6FF00" fill-opacity="0.5"/>
<path d="M27.2627 82.6749C27.2627 82.6749 27.3081 82.5801 27.3005 82.7317C27.221 84.3726 26.7211 94.3318 27.1225 96.022C27.5657 97.8675 25.9863 93.6648 25.9863 93.6648L27.2627 82.6749Z" fill="#A6FF00" fill-opacity="0.5"/>
<path d="M19.5291 68.297C19.5291 68.297 19.7071 68.2022 19.6882 68.2628C19.2526 69.8621 19.8435 76.422 20.2449 78.1159C20.6843 79.9615 19.4609 76.6645 19.4609 76.6645L19.5291 68.297Z" fill="#A6FF00" fill-opacity="0.5"/>
<path d="M39.4766 64.6627C39.4766 64.6627 38.4313 88.6966 35.5794 94.2295C31.9474 101.263 29.8984 88.5071 30.2771 86.1197C30.6559 83.7322 31.4929 70.025 39.4766 64.6627Z" fill="#A6FF00" fill-opacity="0.5"/>
<path d="M19.5291 68.297C19.5291 68.297 19.7071 68.2022 19.6882 68.2628C19.2526 69.8621 19.8435 76.422 20.2449 78.1159C20.6843 79.9615 19.4609 76.6645 19.4609 76.6645L19.5291 68.297Z" fill="#A6FF00" fill-opacity="0.5"/>
<path d="M33.1778 95.4801C33.1778 95.4801 33.2233 95.3702 33.2195 95.5407C33.1437 97.3711 32.6627 108.471 33.0718 110.354C33.5149 112.412 31.9355 107.728 31.9355 107.728L33.1778 95.4801Z" fill="#A6FF00" fill-opacity="0.5"/>
<path d="M53.9059 73.8715C53.9059 73.8715 46.8198 101.415 42.6158 107.334C37.2681 114.868 36.8022 99.3758 37.7718 96.6814C38.7414 93.9869 44.6837 78.7867 53.9059 73.8715Z" fill="#A6FF00" fill-opacity="0.5"/>
<path d="M39.6881 109.1C39.6881 109.1 39.8206 108.634 39.8131 108.823C39.726 110.866 38.2186 121.981 38.6769 124.08C39.1768 126.373 37.4043 121.553 37.4043 121.553L39.6881 109.1Z" fill="#A6FF00" fill-opacity="0.5"/>
<path d="M62.205 86.51C62.205 86.51 52.7782 115.133 48.5705 121.439C43.2303 129.462 43.5371 112.09 45.0142 107.304C46.5367 102.404 52.9903 91.7473 62.205 86.51Z" fill="#A6FF00" fill-opacity="0.5"/>
<path d="M45.6534 123.319C45.6534 123.319 45.7859 122.822 45.7784 123.023C45.6951 125.202 44.199 137.045 44.6611 139.277C45.161 141.721 43.3848 136.583 43.3848 136.583L45.6534 123.319Z" fill="#A6FF00" fill-opacity="0.5"/>
<path d="M67.9005 100.444C67.9005 100.444 58.4701 129.068 54.2661 135.374C48.9259 143.4 49.2365 126.025 50.7098 121.242C52.2285 116.327 58.6859 105.674 67.9005 100.444Z" fill="#A6FF00" fill-opacity="0.5"/>
<path d="M51.351 137.246C51.351 137.246 51.4797 136.749 51.4722 136.95C51.3888 139.125 49.9004 151.351 50.3587 153.594C50.8624 156.039 48.8438 150.422 48.8438 150.422L51.351 137.246Z" fill="#A6FF00" fill-opacity="0.5"/>
<path d="M77.5856 112.571C77.5856 112.571 65.1101 142.24 60.9213 148.546C55.5811 156.573 56.7552 136.867 58.2474 132.08C59.751 127.173 68.371 117.801 77.5856 112.571Z" fill="#A6FF00" fill-opacity="0.5"/>
<path d="M58.5843 150.282C58.5843 150.282 58.6827 150.013 58.6752 150.256C58.6032 152.874 56.5656 167.43 57.0315 170.125C57.5427 173.069 55.1719 166.388 55.1719 166.388L58.5843 150.282Z" fill="#A6FF00" fill-opacity="0.5"/>
<path d="M90.0675 127.753C90.0675 127.753 85 138.458 78.5085 147.459C74.153 153.522 68.2827 158.263 66.1087 160.491C59.1627 167.551 65.071 149.104 67.5252 144.636C70.04 140.069 79.8795 131.485 90.0675 127.753Z" fill="#A6FF00" fill-opacity="0.5"/>
<path d="M63.3788 161.734C63.3788 161.734 63.4735 161.465 63.4659 161.708C63.394 164.33 61.2314 180.061 61.8336 182.737C61.9775 183.369 59.8301 177.962 59.8301 177.962L63.3788 161.734Z" fill="#A6FF00" fill-opacity="0.5"/>
<path d="M95.9312 142.51C95.9312 142.51 90.2502 154.561 83.0201 164.724C78.1723 171.546 71.7035 176.938 69.2758 179.455C61.5799 187.436 68.2873 166.703 71.0332 161.67C73.8434 156.531 84.7282 146.807 95.9312 142.51Z" fill="#A6FF00" fill-opacity="0.5"/>
<path d="M108.353 166.911C108.353 166.911 95.2909 174.339 86.0573 181.334C75.2293 189.543 73.3129 190.475 70.0899 191.487C59.8641 194.682 75.199 174.737 79.8158 171.834C84.55 168.859 96.7755 165.66 108.353 166.911Z" fill="#A6FF00" fill-opacity="0.5"/>
<path d="M66.0788 181.384C66.0788 181.384 66.2719 180.705 66.2643 180.83C66.1659 182.195 64.0525 188.41 64.632 189.823C64.7683 190.153 63.5488 187.402 63.5488 187.402L66.0788 181.384Z" fill="#A6FF00" fill-opacity="0.5"/>
<path d="M68.0378 190.839C68.0378 190.839 68.2347 190.505 68.2272 190.566C68.1135 191.241 65.9548 194.322 66.5077 195.007C66.6403 195.17 65.4473 193.814 65.4473 193.814L68.0378 190.839Z" fill="#A6FF00" fill-opacity="0.5"/>
<path d="M5.05664 53.4529C5.05664 53.4529 13.5062 68.9602 17.5549 72.3481C17.5473 72.3291 15.1537 62.2828 5.05664 53.4529Z" fill="#A6FF00" fill-opacity="0.5"/>
<path d="M0.6875 60.9261C0.6875 60.9261 11.8374 72.0449 15.7952 73.322C15.7952 73.322 10.705 64.4997 0.6875 60.9261Z" fill="#A6FF00" fill-opacity="0.5"/>
<path d="M10.166 46.192C10.166 46.192 12.9081 65.8526 17.5551 71.4878C17.5551 71.4878 21.4599 60.6532 10.166 46.192Z" fill="#A6FF00" fill-opacity="0.5"/>
<path d="M0.732422 68.0241C0.732422 68.0241 14.1737 82.6635 18.1277 86.6957C19.0556 87.6431 19.6086 88.0183 19.885 87.9955C20.7107 87.9235 19.0442 84.2892 17.6126 81.9056C15.7076 78.7298 8.1935 69.6537 0.732422 68.0241Z" fill="#A6FF00" fill-opacity="0.5"/>
<path d="M19.8498 87.6696C19.8498 87.6696 19.7703 87.5976 19.8498 87.7303C20.8572 89.1249 26.9662 97.5833 27.7351 99.156C28.5721 100.869 26.9776 96.8102 26.9776 96.8102L19.8498 87.6696Z" fill="#A6FF00" fill-opacity="0.5"/>
<path d="M15.7064 73.1591C15.7064 73.1591 15.5549 73.1288 15.6003 73.178C16.7782 74.4362 20.2928 80.2609 21.0617 81.826C21.8987 83.5389 20.6451 80.3594 20.6451 80.3594L15.7064 73.1591Z" fill="#A6FF00" fill-opacity="0.5"/>
<path d="M2.56055 75.4329C2.56055 75.4329 17.2214 95.8969 22.0313 99.8912C28.1554 104.985 21.8154 93.4147 20.2134 91.4593C18.6113 89.5038 10.1087 77.8961 2.56055 75.4329Z" fill="#A6FF00" fill-opacity="0.5"/>
<path d="M15.7064 73.1591C15.7064 73.1591 15.5549 73.1288 15.6003 73.178C16.7782 74.4362 20.2928 80.2609 21.0617 81.826C21.8987 83.5389 20.6451 80.3594 20.6451 80.3594L15.7064 73.1591Z" fill="#A6FF00" fill-opacity="0.5"/>
<path d="M24.0895 100.323C24.0895 100.323 24.0024 100.24 24.0895 100.384C25.203 101.945 31.971 111.4 32.8496 113.136C33.8078 115.031 31.9407 110.555 31.9407 110.555L24.0895 100.323Z" fill="#A6FF00" fill-opacity="0.5"/>
<path d="M0.00195312 87.2679C0.00195312 87.2679 20.0446 109.13 25.8279 113.106C33.1905 118.165 24.3697 104.662 22.2602 102.601C20.1506 100.539 7.96674 89.0225 0.00195312 87.2679Z" fill="#A6FF00" fill-opacity="0.5"/>
<path d="M28.4786 113.841C28.4786 113.841 28.134 113.462 28.2476 113.636C29.4898 115.376 36.8335 124.562 37.8106 126.498C38.8825 128.613 37.0342 123.971 37.0342 123.971L28.4786 113.841Z" fill="#A6FF00" fill-opacity="0.5"/>
<path d="M2.83008 100.422C2.83008 100.422 24.7967 122.584 30.8034 126.892C38.4501 132.376 28.103 117.464 24.4861 113.731C20.7783 109.919 10.9767 102.457 2.83008 100.422Z" fill="#A6FF00" fill-opacity="0.5"/>
<path d="M33.5077 127.73C33.5077 127.73 33.1479 127.351 33.2691 127.51C34.5871 129.367 42.3587 139.182 43.404 141.236C44.5592 143.48 42.5329 138.564 42.5329 138.564L33.5077 127.73Z" fill="#A6FF00" fill-opacity="0.5"/>
<path d="M7.8457 113.981C7.8457 113.981 29.8123 136.143 35.819 140.452C43.4657 145.935 33.1187 131.023 29.5018 127.29C25.7977 123.467 15.9961 116.016 7.8457 113.981Z" fill="#A6FF00" fill-opacity="0.5"/>
<path d="M38.5334 141.285C38.5334 141.285 38.1546 140.907 38.2948 141.066C39.6128 142.923 47.6003 153.075 48.657 155.133C49.7932 157.376 47.6344 151.984 47.6344 151.984L38.5334 141.285Z" fill="#A6FF00" fill-opacity="0.5"/>
<path d="M9.60547 127.071C9.60547 127.071 33.8861 149.331 39.8777 153.621C47.5206 159.104 35.3329 142.415 31.7046 138.682C28.0006 134.862 17.7558 129.102 9.60547 127.071Z" fill="#A6FF00" fill-opacity="0.5"/>
<path d="M42.1811 154.496C42.1811 154.496 41.969 154.288 42.1167 154.496C43.6923 156.74 53.3424 168.753 54.6604 171.205C56.1034 173.884 53.4977 167.476 53.4977 167.476L42.1811 154.496Z" fill="#A6FF00" fill-opacity="0.5"/>
<path d="M11.6211 143.552C11.6211 143.552 20.688 151.427 29.5466 157.452C35.4927 161.499 41.507 164.02 44.0218 165.354C51.9753 169.568 37.9204 155.243 33.9475 152.048C29.8799 148.774 19.4268 144.025 11.6211 143.552Z" fill="#A6FF00" fill-opacity="0.5"/>
<path d="M46.2476 165.676C46.2476 165.676 46.0354 165.471 46.1832 165.676C47.7587 167.919 58.1663 180.914 59.401 183.385C59.6926 183.972 57.7081 178.723 57.7081 178.723L46.2476 165.676Z" fill="#A6FF00" fill-opacity="0.5"/>
<path d="M17.041 157.888C17.041 157.888 27.2365 166.763 37.1708 173.585C43.8441 178.166 50.5704 181.069 53.3844 182.585C62.2922 187.386 46.4573 171.311 41.9921 167.699C37.4207 164.008 25.7292 158.559 17.041 157.888Z" fill="#A6FF00" fill-opacity="0.5"/>
<path d="M24.4746 182.301C24.4746 182.301 36.0298 185.181 45.2217 188.743C56.0005 192.912 57.6063 193.192 59.9923 193.192C67.4913 193.192 47.3653 180.114 43.1159 178.856C38.7453 177.549 30.1291 178.09 24.4746 182.301Z" fill="#A6FF00" fill-opacity="0.5"/>
<path d="M56.2626 183.373C56.1339 183.223 55.9974 183.08 55.8535 182.945C56.7095 184.082 61.5345 188.906 62.0231 190.263C62.1405 190.585 61.2012 187.883 61.2012 187.883L56.2626 183.373Z" fill="#A6FF00" fill-opacity="0.5"/>
<path d="M60.728 192.059C60.728 192.059 60.4212 191.824 60.4629 191.873C60.9211 192.427 63.9207 194.5 64.0154 195.246C64.0343 195.424 63.898 193.927 63.898 193.927L60.728 192.059Z" fill="#A6FF00" fill-opacity="0.5"/>
<path d="M226.689 95.7908L179.408 192.844L181.84 193.056L226.689 95.7908Z" fill="#EDFFC8"/>
<path d="M228.503 78.7715C228.503 78.7715 225.208 91.9784 226.689 95.7908C226.689 95.7908 231.904 88.5412 228.503 78.7715Z" fill="#EDFFC8"/>
<path d="M218.455 81.5759C218.455 81.5759 221.186 93.2025 224.178 95.6658C224.178 95.6658 225.768 88.0334 218.455 81.5759Z" fill="#EDFFC8"/>
<path d="M239.1 76.4371C239.1 76.4371 226.951 89.807 227.333 95.2716C227.333 95.2716 239.46 90.1859 239.1 76.4371Z" fill="#EDFFC8"/>
<path d="M213.123 86.0022C213.123 86.0022 215.483 100.782 216.38 104.95C216.592 105.932 216.861 106.398 217.157 106.5C218.035 106.807 219.122 103.848 219.497 101.759C219.993 98.9893 219.353 90.1746 213.123 86.0022Z" fill="#EDFFC8"/>
<path d="M217.368 106.296C217.368 106.296 217.341 106.216 217.334 106.337C217.285 107.63 216.985 115.474 216.576 116.77C216.118 118.188 217.599 114.997 217.599 114.997L217.368 106.296Z" fill="#EDFFC8"/>
<path d="M224.193 95.5179C224.193 95.5179 224.068 95.4346 224.075 95.4838C224.295 96.7647 223.405 101.869 222.985 103.165C222.526 104.583 223.678 102.078 223.678 102.078L224.193 95.5179Z" fill="#EDFFC8"/>
<path d="M209.35 91.3721C209.35 91.3721 208.51 110.29 210.293 114.811C212.566 120.564 214.982 110.695 214.861 108.801C214.74 106.906 215.024 96.1016 209.35 91.3721Z" fill="#EDFFC8"/>
<path d="M224.193 95.5179C224.193 95.5179 224.068 95.4346 224.075 95.4838C224.295 96.7647 223.405 101.869 222.985 103.165C222.526 104.583 223.678 102.078 223.678 102.078L224.193 95.5179Z" fill="#EDFFC8"/>
<path d="M212.025 115.948C212.025 115.948 211.994 115.861 211.991 115.993C211.922 117.433 211.532 126.169 211.097 127.616C210.619 129.2 212.138 125.63 212.138 125.63L212.025 115.948Z" fill="#EDFFC8"/>
<path d="M197.811 97.6477C197.811 97.6477 201.299 119.707 204.079 124.622C207.616 130.879 209.002 118.76 208.468 116.588C207.934 114.417 204.45 102.108 197.811 97.6477Z" fill="#EDFFC8"/>
<path d="M206.173 126.214C206.173 126.214 206.104 125.835 206.097 125.99C206.025 127.597 206.411 136.408 205.923 138.026C205.392 139.792 207.059 136.132 207.059 136.132L206.173 126.214Z" fill="#EDFFC8"/>
<path d="M190.684 107.012C190.684 107.012 195.876 130.072 198.637 135.29C202.133 141.93 203.076 128.291 202.284 124.441C201.447 120.499 197.289 111.722 190.684 107.012Z" fill="#EDFFC8"/>
<path d="M200.696 136.958C200.696 136.958 200.628 136.56 200.62 136.715C200.537 138.428 200.863 147.807 200.367 149.532C199.821 151.427 201.503 147.504 201.503 147.504L200.696 136.958Z" fill="#EDFFC8"/>
<path d="M185.422 117.555C185.422 117.555 190.611 140.615 193.375 145.833C196.871 152.476 197.818 138.834 197.026 134.987C196.197 131.042 192.035 122.269 185.422 117.555Z" fill="#EDFFC8"/>
<path d="M195.444 147.5C195.444 147.5 195.38 147.122 195.372 147.262C195.285 148.975 195.581 158.661 195.084 160.385C194.539 162.28 196.444 157.998 196.444 157.998L195.444 147.5Z" fill="#EDFFC8"/>
<path d="M177.271 126.43C177.271 126.43 184.695 150.509 187.441 155.732C190.936 162.371 191.372 146.845 190.58 142.995C189.77 139.053 183.884 131.141 177.271 126.43Z" fill="#EDFFC8"/>
<path d="M189.085 157.247C189.085 157.247 189.029 157.031 189.017 157.221C188.896 159.279 189.449 170.826 188.911 172.906C188.328 175.18 190.574 170.098 190.574 170.098L189.085 157.247Z" fill="#EDFFC8"/>
<path d="M166.797 137.519C166.797 137.519 169.902 146.235 174.201 153.738C177.087 158.767 181.193 162.879 182.7 164.77C187.476 170.758 184.257 155.91 182.7 152.264C181.109 148.49 174.25 141.115 166.797 137.519Z" fill="#EDFFC8"/>
<path d="M184.68 165.914C184.68 165.914 184.627 165.698 184.616 165.888C184.494 167.946 185.062 180.421 184.426 182.479C184.275 182.968 186.263 178.867 186.263 178.867L184.68 165.914Z" fill="#EDFFC8"/>
<path d="M161.357 148.717C161.357 148.717 164.842 158.536 169.618 166.979C172.822 172.664 177.351 177.295 179.018 179.428C184.297 186.189 180.631 169.496 178.893 165.369C177.117 161.139 169.542 152.81 161.357 148.717Z" fill="#EDFFC8"/>
<path d="M150.307 167.025C150.307 167.025 159.684 173.702 166.195 179.792C173.83 186.936 175.216 187.796 177.587 188.796C185.09 191.972 174.86 175.332 171.561 172.751C168.183 170.109 159.15 166.801 150.307 167.025Z" fill="#EDFFC8"/>
<path d="M181.298 181.141C181.275 180.99 181.24 180.84 181.195 180.694C181.195 181.77 182.332 186.795 181.82 187.849C181.691 188.099 182.801 186.026 182.801 186.026L181.298 181.141Z" fill="#EDFFC8"/>
<path d="M179.184 188.425C179.184 188.425 179.055 188.148 179.059 188.197C179.097 188.736 180.532 191.294 180.055 191.794C179.945 191.915 180.937 190.926 180.937 190.926L179.184 188.425Z" fill="#EDFFC8"/>
<path d="M236.15 84.8274C236.15 84.8274 228.704 96.4313 225.42 98.8187C225.42 98.8187 227.908 91.103 236.15 84.8274Z" fill="#EDFFC8"/>
<path d="M238.949 90.9704C238.949 90.9704 229.757 98.959 226.682 99.6866C226.682 99.7131 231.128 93.1305 238.949 90.9704Z" fill="#EDFFC8"/>
<path d="M232.775 78.8132C232.775 78.8132 229.367 94.0476 225.47 98.1594C225.47 98.1707 223.254 89.3977 232.775 78.8132Z" fill="#EDFFC8"/>
<path d="M238.433 96.5487C238.433 96.5487 227.268 107.16 224.007 110.047C223.249 110.73 222.795 110.987 222.587 110.949C221.969 110.843 223.473 108.1 224.719 106.326C226.378 103.961 232.676 97.337 238.433 96.5487Z" fill="#EDFFC8"/>
<path d="M222.633 110.699C222.633 110.699 222.701 110.65 222.633 110.745C221.777 111.772 216.573 118.006 215.895 119.184C215.138 120.473 216.622 117.399 216.622 117.399L222.633 110.699Z" fill="#EDFFC8"/>
<path d="M226.765 99.5994C226.765 99.5994 226.883 99.5994 226.845 99.6221C225.871 100.532 222.815 104.867 222.126 106.046C221.368 107.33 222.542 104.909 222.542 104.909L226.765 99.5994Z" fill="#EDFFC8"/>
<path d="M236.547 102.229C236.547 102.229 224.068 117.316 220.155 120.135C215.179 123.728 220.758 115.072 222.102 113.644C223.447 112.215 230.669 103.673 236.547 102.229Z" fill="#EDFFC8"/>
<path d="M226.765 99.5994C226.765 99.5994 226.883 99.5994 226.845 99.6221C225.871 100.532 222.815 104.867 222.126 106.046C221.368 107.33 222.542 104.909 222.542 104.909L226.765 99.5994Z" fill="#EDFFC8"/>
<path d="M218.572 120.34C218.572 120.34 218.644 120.283 218.572 120.389C217.622 121.526 211.861 128.507 211.077 129.81C210.225 131.232 211.941 127.847 211.941 127.847L218.572 120.34Z" fill="#EDFFC8"/>
<path d="M237.679 111.685C237.679 111.685 221.034 127.514 216.387 130.254C210.475 133.737 218.065 123.728 219.796 122.25C221.526 120.772 231.536 112.537 237.679 111.685Z" fill="#EDFFC8"/>
<path d="M214.334 130.652C214.334 130.652 214.618 130.386 214.52 130.504C213.463 131.789 207.286 138.508 206.411 139.978C205.46 141.566 207.168 138.045 207.168 138.045L214.334 130.652Z" fill="#EDFFC8"/>
<path d="M234.65 121.814C234.65 121.814 216.527 137.731 211.691 140.732C205.533 144.522 214.372 133.532 217.372 130.826C220.424 128.071 228.344 122.872 234.65 121.814Z" fill="#EDFFC8"/>
<path d="M209.578 141.206C209.578 141.206 209.881 140.922 209.775 141.051C208.638 142.419 202.116 149.604 201.177 151.146C200.151 152.833 202.018 149.111 202.018 149.111L209.578 141.206Z" fill="#EDFFC8"/>
<path d="M229.935 132.115C229.935 132.115 211.812 148.05 206.976 151.032C200.818 154.822 209.657 143.832 212.657 141.13C215.71 138.375 223.633 133.172 229.935 132.115Z" fill="#EDFFC8"/>
<path d="M204.863 151.51C204.863 151.51 205.166 151.226 205.06 151.351C203.924 152.719 197.205 160.158 196.266 161.7C195.24 163.387 197.254 159.301 197.254 159.301L204.863 151.51Z" fill="#EDFFC8"/>
<path d="M227.712 142.259C227.712 142.259 207.847 158.108 203.01 161.094C196.856 164.884 207.214 152.605 210.206 149.918C213.267 147.163 221.409 143.317 227.712 142.259Z" fill="#EDFFC8"/>
<path d="M201.207 161.624C201.207 161.624 201.381 161.48 201.256 161.624C199.912 163.281 191.788 172.065 190.633 173.903C189.36 175.908 191.769 171.053 191.769 171.053L201.207 161.624Z" fill="#EDFFC8"/>
<path d="M225.071 155.049C220.403 158.534 215.562 161.78 210.565 164.774C205.793 167.555 201.071 169.139 199.078 170.019C192.769 172.8 204.381 162.492 207.604 160.245C210.903 157.949 219.132 154.909 225.071 155.049Z" fill="#EDFFC8"/>
<path d="M197.374 170.128C197.374 170.128 197.545 169.981 197.42 170.128C196.075 171.785 187.323 181.289 186.221 183.146C185.959 183.585 187.815 179.603 187.815 179.603L197.374 170.128Z" fill="#EDFFC8"/>
<path d="M220.002 165.933C220.002 165.933 211.669 172.217 203.716 176.923C198.357 180.076 193.074 181.91 190.839 182.919C183.768 186.102 196.846 174.532 200.466 171.997C204.163 169.416 213.381 165.892 220.002 165.933Z" fill="#EDFFC8"/>
<path d="M212.718 184.575C212.718 184.575 203.78 186.09 196.588 188.254C188.15 190.805 186.915 190.907 185.124 190.774C179.443 190.282 195.565 181.346 198.864 180.637C202.243 179.925 208.727 180.914 212.718 184.575Z" fill="#EDFFC8"/>
<path d="M188.597 183.343C188.709 183.235 188.826 183.132 188.949 183.036C188.225 183.881 184.256 187.337 183.787 188.372C183.677 188.614 184.571 186.557 184.571 186.557L188.597 183.343Z" fill="#EDFFC8"/>
<path d="M184.623 189.88C184.623 189.88 184.873 189.717 184.839 189.755C184.46 190.157 182.043 191.585 181.922 192.165C181.896 192.302 182.1 191.138 182.1 191.138L184.623 189.88Z" fill="#EDFFC8"/>
<path d="M170.754 0H74.6732C63.4952 0 54.4336 9.06706 54.4336 20.2519V215.282C54.4336 226.467 63.4952 235.534 74.6732 235.534H170.754C181.932 235.534 190.994 226.467 190.994 215.282V20.2519C190.994 9.06706 181.932 0 170.754 0Z" fill="#A6FF00" fill-opacity="0.2"/>
<path d="M171.243 9.19746H73.8212C66.4145 9.19746 60.4102 15.2054 60.4102 22.6166V215.316C60.4102 222.727 66.4145 228.735 73.8212 228.735H171.243C178.65 228.735 184.654 222.727 184.654 215.316V22.6166C184.654 15.2054 178.65 9.19746 171.243 9.19746Z" fill="white" fill-opacity="0.4"/>
<path d="M149.968 4.16483H92.8395C89.7752 4.16483 87.291 6.65046 87.291 9.71665V9.72044C87.291 12.7866 89.7752 15.2723 92.8395 15.2723H149.968C153.032 15.2723 155.516 12.7866 155.516 9.72044V9.71665C155.516 6.65046 153.032 4.16483 149.968 4.16483Z" fill="#A6FF00" fill-opacity="0.2"/>
<path d="M134.807 5.1236H108.819C107.656 5.1236 106.713 6.06695 106.713 7.23064V7.23443C106.713 8.39811 107.656 9.34147 108.819 9.34147H134.807C135.97 9.34147 136.913 8.39811 136.913 7.23443V7.23064C136.913 6.06695 135.97 5.1236 134.807 5.1236Z" fill="white" fill-opacity="0.4"/>
<path d="M170.454 37.3469H76.8419C73.7859 37.3469 71.3086 39.8258 71.3086 42.8836V63.1658C71.3086 66.2236 73.7859 68.7024 76.8419 68.7024H170.454C173.51 68.7024 175.987 66.2236 175.987 63.1658V42.8836C175.987 39.8258 173.51 37.3469 170.454 37.3469Z" fill="#F6FFE4" fill-opacity="0.4"/>
<path d="M87.2611 64.0942C93.4902 64.0942 98.5399 59.0415 98.5399 52.8087C98.5399 46.5759 93.4902 41.5231 87.2611 41.5231C81.0321 41.5231 75.9824 46.5759 75.9824 52.8087C75.9824 59.0415 81.0321 64.0942 87.2611 64.0942Z" fill="#EDFFC8"/>
<path d="M165.195 42.5122H106.782C105.46 42.5122 104.389 43.5845 104.389 44.9073C104.389 46.23 105.46 47.3023 106.782 47.3023H165.195C166.516 47.3023 167.588 46.23 167.588 44.9073C167.588 43.5845 166.516 42.5122 165.195 42.5122Z" fill="#EDFFC8"/>
<path d="M151.787 50.4705H106.782C105.46 50.4705 104.389 51.5428 104.389 52.8655C104.389 54.1883 105.46 55.2606 106.782 55.2606H151.787C153.109 55.2606 154.181 54.1883 154.181 52.8655C154.181 51.5428 153.109 50.4705 151.787 50.4705Z" fill="#EDFFC8"/>
<path d="M117.372 59.3004H106.782C105.46 59.3004 104.389 60.3727 104.389 61.6954C104.389 63.0182 105.46 64.0905 106.782 64.0905H117.372C118.694 64.0905 119.765 63.0182 119.765 61.6954C119.765 60.3727 118.694 59.3004 117.372 59.3004Z" fill="#EDFFC8"/>
<path d="M170.454 118.241H76.8419C73.7859 118.241 71.3086 120.72 71.3086 123.777V144.06C71.3086 147.117 73.7859 149.596 76.8419 149.596H170.454C173.51 149.596 175.987 147.117 175.987 144.06V123.777C175.987 120.72 173.51 118.241 170.454 118.241Z" fill="#F6FFE4" fill-opacity="0.4"/>
<path d="M87.2611 144.988C93.4902 144.988 98.5399 139.935 98.5399 133.702C98.5399 127.47 93.4902 122.417 87.2611 122.417C81.0321 122.417 75.9824 127.47 75.9824 133.702C75.9824 139.935 81.0321 144.988 87.2611 144.988Z" fill="#EDFFC8"/>
<path d="M165.195 123.41H106.782C105.46 123.41 104.389 124.482 104.389 125.805C104.389 127.128 105.46 128.2 106.782 128.2H165.195C166.516 128.2 167.588 127.128 167.588 125.805C167.588 124.482 166.516 123.41 165.195 123.41Z" fill="#EDFFC8"/>
<path d="M151.787 131.368H106.782C105.46 131.368 104.389 132.44 104.389 133.763C104.389 135.086 105.46 136.158 106.782 136.158H151.787C153.109 136.158 154.181 135.086 154.181 133.763C154.181 132.44 153.109 131.368 151.787 131.368Z" fill="#EDFFC8"/>
<path d="M117.372 140.198H106.782C105.46 140.198 104.389 141.27 104.389 142.593C104.389 143.916 105.46 144.988 106.782 144.988H117.372C118.694 144.988 119.765 143.916 119.765 142.593C119.765 141.27 118.694 140.198 117.372 140.198Z" fill="#EDFFC8"/>
<path d="M170.454 156.607H76.8419C73.7859 156.607 71.3086 159.086 71.3086 162.144V182.426C71.3086 185.484 73.7859 187.962 76.8419 187.962H170.454C173.51 187.962 175.987 185.484 175.987 182.426V162.144C175.987 159.086 173.51 156.607 170.454 156.607Z" fill="#F6FFE4" fill-opacity="0.3"/>
<path d="M87.2611 183.351C93.4902 183.351 98.5399 178.298 98.5399 172.065C98.5399 165.832 93.4902 160.779 87.2611 160.779C81.0321 160.779 75.9824 165.832 75.9824 172.065C75.9824 178.298 81.0321 183.351 87.2611 183.351Z" fill="#EDFFC8"/>
<path d="M165.195 161.772H106.782C105.46 161.772 104.389 162.845 104.389 164.167C104.389 165.49 105.46 166.562 106.782 166.562H165.195C166.516 166.562 167.588 165.49 167.588 164.167C167.588 162.845 166.516 161.772 165.195 161.772Z" fill="#EDFFC8"/>
<path d="M151.787 169.731H106.782C105.46 169.731 104.389 170.803 104.389 172.126C104.389 173.448 105.46 174.521 106.782 174.521H151.787C153.109 174.521 154.181 173.448 154.181 172.126C154.181 170.803 153.109 169.731 151.787 169.731Z" fill="#EDFFC8"/>
<path d="M117.372 178.56H106.782C105.46 178.56 104.389 179.633 104.389 180.955C104.389 182.278 105.46 183.351 106.782 183.351H117.372C118.694 183.351 119.765 182.278 119.765 180.955C119.765 179.633 118.694 178.56 117.372 178.56Z" fill="#EDFFC8"/>
<path d="M145.938 80.7762H52.3263C49.2703 80.7762 46.793 83.2551 46.793 86.3129V106.595C46.793 109.653 49.2703 112.132 52.3263 112.132H145.938C148.994 112.132 151.471 109.653 151.471 106.595V86.3129C151.471 83.2551 148.994 80.7762 145.938 80.7762Z" fill="#F6FFE4" fill-opacity="0.3"/>
<path d="M141.395 75.4707H47.7833C44.7273 75.4707 42.25 77.9496 42.25 81.0074V101.29C42.25 104.347 44.7273 106.826 47.7833 106.826H141.395C144.451 106.826 146.928 104.347 146.928 101.29V81.0074C146.928 77.9496 144.451 75.4707 141.395 75.4707Z" fill="#EDFFC8" fill-opacity="0.5"/>
<path d="M58.2006 102.218C64.4297 102.218 69.4793 97.1653 69.4793 90.9325C69.4793 84.6997 64.4297 79.6469 58.2006 79.6469C51.9715 79.6469 46.9219 84.6997 46.9219 90.9325C46.9219 97.1653 51.9715 102.218 58.2006 102.218Z" fill="white" fill-opacity="0.4"/>
<path d="M136.134 80.636H77.7217C76.3998 80.636 75.3281 81.7083 75.3281 83.0311C75.3281 84.3538 76.3998 85.4261 77.7217 85.4261H136.134C137.456 85.4261 138.528 84.3538 138.528 83.0311C138.528 81.7083 137.456 80.636 136.134 80.636Z" fill="white" fill-opacity="0.4"/>
<path d="M122.727 88.5943H77.7217C76.3998 88.5943 75.3281 89.6666 75.3281 90.9894C75.3281 92.3121 76.3998 93.3844 77.7217 93.3844H122.727C124.049 93.3844 125.12 92.3121 125.12 90.9894C125.12 89.6666 124.049 88.5943 122.727 88.5943Z" fill="white" fill-opacity="0.4"/>
<path d="M88.3112 97.4241H77.7217C76.3998 97.4241 75.3281 98.4964 75.3281 99.8192C75.3281 101.142 76.3998 102.214 77.7217 102.214H88.3112C89.6331 102.214 90.7048 101.142 90.7048 99.8192C90.7048 98.4964 89.6331 97.4241 88.3112 97.4241Z" fill="white" fill-opacity="0.4"/>
<path d="M108.977 301C108.115 301.028 107.267 300.776 106.559 300.283C105.851 299.791 105.32 299.082 105.046 298.264C104.569 296.743 104.59 295.11 105.107 293.603C106.19 290.275 109.216 282.7 111.114 277.842C111.458 277.011 112.041 276.301 112.789 275.802C113.536 275.303 114.415 275.037 115.314 275.037L218.428 273.9C218.428 273.9 224.272 273.302 224.526 279.016C224.779 284.731 224.696 294.933 224.696 294.933C224.696 294.933 225.476 298.836 220.007 298.927C216.398 298.98 124.881 300.701 108.977 301Z" fill="#EDFFC8" fill-opacity="0.6"/>
<path d="M109.633 296.824C108.677 296.851 107.729 296.648 106.868 296.233C105.569 295.581 104.217 294.27 105.065 291.708C106.141 288.381 109.936 278.527 111.822 273.669C112.159 272.84 112.736 272.131 113.478 271.63C114.22 271.13 115.093 270.863 115.988 270.861L218.447 269.747C218.447 269.747 224.253 269.148 224.507 274.863C224.761 280.578 224.681 290.779 224.681 290.779C224.681 290.779 225.438 294.683 220.019 294.774C216.292 294.815 119.677 296.634 109.633 296.824Z" fill="#F6FFE4" fill-opacity="0.6"/>
<path d="M126.236 293.502C133.969 293.418 140.189 288.883 140.129 283.372C140.07 277.862 133.753 273.463 126.021 273.546C118.288 273.63 112.068 278.165 112.127 283.676C112.187 289.186 118.504 293.585 126.236 293.502Z" fill="white" fill-opacity="0.4"/>
<path d="M214.636 273.857L147.702 274.582C146.625 274.594 145.761 275.477 145.773 276.555C145.785 277.633 146.667 278.497 147.745 278.485L214.678 277.761C215.755 277.749 216.619 276.866 216.607 275.788C216.596 274.71 215.713 273.846 214.636 273.857Z" fill="white" fill-opacity="0.4"/>
<path d="M197.047 280.842L146.295 281.392C145.377 281.402 144.641 282.155 144.651 283.073C144.661 283.992 145.413 284.729 146.331 284.719L197.083 284.169C198.001 284.16 198.737 283.407 198.727 282.488C198.717 281.569 197.965 280.832 197.047 280.842Z" fill="white" fill-opacity="0.4"/>
<path d="M163.606 289.371L145.057 289.572C144.306 289.58 143.704 290.195 143.712 290.947C143.72 291.698 144.335 292.3 145.086 292.292L163.636 292.091C164.386 292.083 164.989 291.468 164.98 290.716C164.972 289.965 164.357 289.363 163.606 289.371Z" fill="white" fill-opacity="0.4"/>
<path d="M104.056 290.389C103.193 290.417 102.345 290.165 101.637 289.672C100.929 289.18 100.398 288.471 100.124 287.653C99.647 286.132 99.6683 284.499 100.185 282.992C101.268 279.664 104.294 272.089 106.192 267.23C106.536 266.4 107.119 265.69 107.867 265.191C108.614 264.692 109.493 264.426 110.392 264.426L213.506 263.289C213.506 263.289 219.35 262.69 219.604 268.405C219.857 274.12 219.774 284.322 219.774 284.322C219.774 284.322 220.554 288.225 215.085 288.316C211.476 288.369 119.959 290.09 104.056 290.389Z" fill="#EDFFC8" fill-opacity="0.6"/>
<path d="M104.711 286.213C103.755 286.24 102.807 286.037 101.946 285.622C100.647 284.97 99.295 283.659 100.143 281.097C101.219 277.769 105.014 267.916 106.9 263.058C107.238 262.229 107.814 261.52 108.556 261.019C109.298 260.519 110.172 260.251 111.066 260.25L213.525 259.136C213.525 259.136 219.331 258.537 219.585 264.252C219.839 269.967 219.759 280.168 219.759 280.168C219.759 280.168 220.517 284.072 215.097 284.163C211.37 284.204 114.755 286.023 104.711 286.213Z" fill="#F6FFE4" fill-opacity="0.6"/>
<path d="M121.316 282.891C129.049 282.808 135.269 278.273 135.21 272.762C135.15 267.252 128.833 262.853 121.101 262.936C113.368 263.02 107.148 267.555 107.208 273.066C107.267 278.576 113.584 282.975 121.316 282.891Z" fill="white" fill-opacity="0.4"/>
<path d="M209.716 263.247L142.782 263.972C141.705 263.984 140.841 264.867 140.853 265.945C140.865 267.023 141.747 267.887 142.825 267.875L209.758 267.15C210.835 267.139 211.699 266.256 211.688 265.178C211.676 264.1 210.793 263.236 209.716 263.247Z" fill="white" fill-opacity="0.4"/>
<path d="M192.127 270.232L141.375 270.782C140.457 270.792 139.721 271.545 139.731 272.463C139.741 273.382 140.493 274.119 141.411 274.109L192.163 273.559C193.081 273.549 193.817 272.797 193.807 271.878C193.797 270.959 193.045 270.222 192.127 270.232Z" fill="white" fill-opacity="0.4"/>
<path d="M158.682 278.761L140.133 278.961C139.382 278.97 138.78 279.585 138.788 280.337C138.796 281.088 139.412 281.69 140.162 281.682L158.712 281.481C159.463 281.473 160.065 280.858 160.057 280.106C160.049 279.355 159.433 278.752 158.682 278.761Z" fill="white" fill-opacity="0.4"/>
<path d="M114.125 281.233C113.288 281.249 112.468 280.99 111.792 280.496C111.116 280.002 110.62 279.3 110.379 278.497C109.925 276.975 109.945 275.35 110.436 273.84C111.466 270.512 114.345 262.937 116.147 258.079C116.454 257.262 117.001 256.557 117.715 256.056C118.43 255.556 119.279 255.283 120.151 255.274L218.353 254.205C218.353 254.205 223.916 253.607 224.159 259.325C224.401 265.044 224.333 275.242 224.333 275.242C224.333 275.242 225.09 279.149 219.868 279.232C216.436 279.27 129.267 280.941 114.125 281.233Z" fill="#EDFFC8"/>
<path d="M114.747 277.042C113.827 277.074 112.914 276.869 112.096 276.447C110.861 275.795 109.588 274.488 110.376 271.926C111.399 268.599 115.008 258.745 116.815 253.887C117.116 253.072 117.657 252.368 118.367 251.867C119.077 251.367 119.923 251.095 120.791 251.087L218.361 250.022C218.361 250.022 223.89 249.423 224.133 255.142C224.375 260.86 224.307 271.058 224.307 271.058C224.307 271.058 225.064 274.965 219.872 275.049C216.319 275.102 124.313 276.871 114.747 277.042Z" fill="#F6FFE4" fill-opacity="0.6"/>
<path d="M130.56 273.746C137.924 273.666 143.846 269.135 143.787 263.624C143.727 258.114 137.709 253.711 130.344 253.791C122.98 253.871 117.058 258.402 117.118 263.913C117.177 269.423 123.196 273.826 130.56 273.746Z" fill="white" fill-opacity="0.4"/>
<path d="M214.643 254.149L151.087 254.837C150.01 254.848 149.146 255.732 149.158 256.809C149.169 257.887 150.052 258.752 151.129 258.74L214.685 258.052C215.762 258.04 216.626 257.157 216.614 256.079C216.602 255.001 215.72 254.137 214.643 254.149Z" fill="white" fill-opacity="0.4"/>
<path d="M197.676 261.504L149.501 261.986C148.582 261.995 147.845 262.747 147.855 263.666C147.864 264.585 148.616 265.322 149.534 265.313L197.709 264.831C198.627 264.822 199.364 264.069 199.355 263.151C199.346 262.232 198.594 261.494 197.676 261.504Z" fill="white" fill-opacity="0.4"/>
<path d="M166.081 269.631L148.543 269.821C147.792 269.829 147.19 270.445 147.198 271.196C147.206 271.948 147.822 272.55 148.573 272.542L166.111 272.352C166.862 272.344 167.464 271.728 167.456 270.977C167.448 270.226 166.832 269.623 166.081 269.631Z" fill="white" fill-opacity="0.4"/>
<path d="M100.703 271.179C99.8661 271.186 99.0497 270.919 98.3788 270.418C97.7079 269.917 97.2193 269.21 96.9878 268.405C96.5514 266.877 96.5883 265.251 97.0938 263.744C98.1618 260.432 101.12 252.887 102.979 248.051C103.293 247.236 103.847 246.536 104.567 246.043C105.287 245.55 106.14 245.287 107.013 245.288H205.219C205.219 245.288 210.79 244.754 210.968 250.473C211.146 256.191 210.968 266.389 210.968 266.389C210.968 266.389 211.672 270.3 206.461 270.33C203.018 270.334 115.849 271.054 100.703 271.179Z" fill="#EDFFC8"/>
<path d="M101.37 267.011C100.455 267.03 99.551 266.816 98.7416 266.389C97.5107 265.722 96.2533 264.4 97.0676 261.842C98.128 258.529 101.847 248.714 103.692 243.879C104.001 243.066 104.55 242.367 105.266 241.874C105.981 241.381 106.83 241.116 107.699 241.116H205.276C205.276 241.116 210.813 240.582 210.991 246.3C211.169 252.019 210.991 262.217 210.991 262.217C210.991 262.217 211.688 266.128 206.514 266.158C202.958 266.166 110.937 266.931 101.37 267.011Z" fill="#F6FFE4" fill-opacity="0.6"/>
<path d="M117.241 263.843C124.606 263.843 130.577 259.375 130.577 253.864C130.577 248.354 124.606 243.886 117.241 243.886C109.877 243.886 103.906 248.354 103.906 253.864C103.906 259.375 109.877 263.843 117.241 263.843Z" fill="white" fill-opacity="0.4"/>
<path d="M201.529 245.156H137.97C136.893 245.156 136.02 246.03 136.02 247.107C136.02 248.185 136.893 249.059 137.97 249.059H201.529C202.606 249.059 203.48 248.185 203.48 247.107C203.48 246.03 202.606 245.156 201.529 245.156Z" fill="white" fill-opacity="0.4"/>
<path d="M184.721 251.951H136.545C135.627 251.951 134.883 252.695 134.883 253.614C134.883 254.533 135.627 255.278 136.545 255.278H184.721C185.639 255.278 186.383 254.533 186.383 253.614C186.383 252.695 185.639 251.951 184.721 251.951Z" fill="white" fill-opacity="0.4"/>
<path d="M152.805 260.117H135.266C134.515 260.117 133.906 260.726 133.906 261.478C133.906 262.229 134.515 262.838 135.266 262.838H152.805C153.556 262.838 154.165 262.229 154.165 261.478C154.165 260.726 153.556 260.117 152.805 260.117Z" fill="white" fill-opacity="0.4"/>
</g>
<defs>
<clipPath id="clip0_241_110">
<rect width="260" height="301" fill="white"/>
</clipPath>
</defs>
</svg>
