<svg width="48" height="45" viewBox="0 0 48 45" fill="none" xmlns="http://www.w3.org/2000/svg">
<path d="M29.7451 0.545898C30.986 0.405878 32.2422 0.589768 33.3877 1.08008C34.533 1.57059 35.5286 2.34987 36.2734 3.33887L46.0986 16.4355C46.8425 17.4273 47.3097 18.5949 47.4531 19.8203C47.5876 20.9695 47.4334 22.1324 47.0059 23.207L46.917 23.4199L40.3564 38.3701C39.8618 39.5009 39.0739 40.4839 38.0723 41.2197C37.1333 41.9088 36.0376 42.3588 34.8828 42.5293L34.6504 42.5596L18.2539 44.4531C17.0134 44.5963 15.7567 44.4126 14.6104 43.9219C13.5361 43.4621 12.5948 42.7473 11.8691 41.8428L11.7275 41.6592L1.90137 28.5635C1.15745 27.5717 0.691204 26.4042 0.547852 25.1787V25.1777L0.524414 24.9482C0.428099 23.7982 0.619361 22.6413 1.08301 21.5791L7.64355 6.62793C8.13791 5.49666 8.92532 4.51294 9.92676 3.77734C10.9281 3.04194 12.1085 2.58057 13.3486 2.43945H13.3496L29.7441 0.544922L29.7451 0.545898Z" fill="#B77B3D" stroke="white"/>
<g clip-path="url(#clip0_252_60)">
<path d="M30.0626 9.5H16.2251C14.9641 9.50991 13.7586 10.0195 12.8729 10.917C11.9871 11.8144 11.4934 13.0266 11.5001 14.2875V23.0375C11.4934 24.2984 11.9871 25.5106 12.8729 26.408C13.7586 27.3055 14.9641 27.8151 16.2251 27.825H21.7751V31.1125H18.1001C17.8514 31.1125 17.613 31.2113 17.4372 31.3871C17.2613 31.5629 17.1626 31.8014 17.1626 32.05C17.1626 32.2986 17.2613 32.5371 17.4372 32.7129C17.613 32.8887 17.8514 32.9875 18.1001 32.9875H28.1876C28.4362 32.9875 28.6747 32.8887 28.8505 32.7129C29.0263 32.5371 29.1251 32.2986 29.1251 32.05C29.1251 31.8014 29.0263 31.5629 28.8505 31.3871C28.6747 31.2113 28.4362 31.1125 28.1876 31.1125H24.5126V27.7875H30.0626C31.3213 27.7743 32.5236 27.2633 33.4067 26.3662C34.2898 25.469 34.7817 24.2588 34.7751 23V14.25C34.7718 12.9977 34.2755 11.797 33.3935 10.908C32.5115 10.019 31.3148 9.51314 30.0626 9.5Z" fill="white" fill-opacity="0.7"/>
<path d="M34.0446 20H27.9656C27.4387 20.0175 26.9388 20.2612 26.5719 20.6794C26.2049 21.0976 25.9998 21.6574 26 22.24V31.76C25.9998 32.3426 26.2049 32.9024 26.5719 33.3206C26.9388 33.7388 27.4387 33.9825 27.9656 34H34.0446C34.5696 33.9797 35.067 33.7347 35.4318 33.3168C35.7966 32.8989 36.0003 32.3407 36 31.76V22.2064C35.9925 21.6315 35.7853 21.0818 35.4213 20.671C35.0573 20.2603 34.5644 20.0201 34.0446 20ZM31.0051 32.1296C30.7814 32.134 30.5616 32.0646 30.3738 31.9303C30.186 31.7959 30.0387 31.6027 29.9508 31.3753C29.8628 31.1479 29.8382 30.8967 29.8801 30.6537C29.922 30.4108 30.0285 30.1872 30.186 30.0115C30.3435 29.8359 30.5447 29.7161 30.7641 29.6676C30.9835 29.619 31.2109 29.6439 31.4174 29.7391C31.6239 29.8342 31.8001 29.9952 31.9234 30.2016C32.0466 30.408 32.1114 30.6503 32.1094 30.8976C32.1108 31.0589 32.0832 31.2188 32.0283 31.3682C31.9734 31.5176 31.8922 31.6535 31.7896 31.7681C31.6869 31.8826 31.5647 31.9736 31.43 32.0356C31.2954 32.0977 31.1509 32.1296 31.0051 32.1296Z" fill="white"/>
</g>
<defs>
<clipPath id="clip0_252_60">
<rect width="30" height="30" fill="white" transform="translate(9 7)"/>
</clipPath>
</defs>
</svg>
