<svg width="2380" height="869" viewBox="0 0 2380 869" fill="none" xmlns="http://www.w3.org/2000/svg">
<path d="M172.952 552.959C151.667 519.598 130.782 482.263 110.296 440.96C90.075 399.39 71.7169 356.761 55.2215 313.075C38.7259 269.122 25.5557 226.891 15.7116 186.381C5.86746 145.606 0.945312 109.199 0.945312 77.1619C0.945312 70.2777 2.40866 64.8498 5.33537 60.8784C11.4547 52.4056 18.9044 43.6681 27.6842 34.6662C36.7303 25.3989 47.3725 15.7347 59.6114 5.67341C63.6021 2.49618 67.327 0.907501 70.786 0.907501C74.2446 0.907501 77.7032 2.49618 81.1623 5.67341C93.667 15.7347 104.309 25.3989 113.089 34.6662C121.869 43.6681 129.319 52.4056 135.438 60.8784C138.365 64.8498 139.828 70.6749 139.828 78.3533V76.7645C139.828 99.2704 142.888 126.41 149.008 158.182C155.393 189.691 164.04 222.92 174.948 257.869C186.123 292.554 198.761 326.313 212.861 359.144C227.228 391.713 242.527 420.176 258.756 444.534H261.151C278.977 420.176 295.074 391.843 309.441 359.541C324.074 326.975 336.579 293.349 346.955 258.664C357.598 223.979 365.712 190.881 371.3 159.373C377.153 127.601 380.079 100.197 380.079 77.1619V78.3533C380.079 70.6749 381.41 64.8498 384.07 60.8784C396.841 43.4036 414.403 25.0017 436.75 5.67341C441.008 2.49618 444.731 0.907501 447.926 0.907501C450.851 0.907501 454.31 2.49618 458.301 5.67341C470.274 15.7347 480.517 25.3989 489.03 34.6662C497.542 43.6681 504.86 52.4056 510.982 60.8784C513.64 65.1148 514.974 70.8073 514.974 77.9564C514.974 102.05 511.515 129.984 504.594 161.756C497.942 193.264 488.762 226.627 477.058 261.841C465.352 297.056 452.047 332.271 437.151 367.485C422.249 402.7 406.553 436.324 390.057 468.363C373.56 500.135 357.065 528.334 340.57 552.959C326.735 573.874 307.845 584.334 283.899 584.334H228.825C204.879 584.334 186.255 573.874 172.952 552.959ZM0.945312 76.7645V77.1619V78.3533V76.7645ZM514.974 77.1619V78.3533V77.9564V77.1619ZM670.615 594.26C631.503 594.26 600.375 583.409 577.228 561.695C554.346 539.717 542.909 509.537 542.909 471.145C542.909 451.285 546.5 432.882 553.684 415.938C561.13 398.728 573.904 383.636 591.996 370.663C610.352 357.423 635.895 346.833 668.619 338.889C701.614 330.947 743.651 326.313 794.734 324.989C794.734 300.894 788.612 283.551 776.373 272.961C764.401 262.371 746.309 257.075 722.099 257.075C700.28 257.075 682.458 260.782 668.619 268.195C654.785 275.609 646.138 280.639 642.679 283.287C638.953 286.464 634.434 287.656 629.111 286.861C621.928 285.802 614.211 283.95 605.964 281.302C597.981 278.654 589.333 275.609 580.024 272.167C578.691 271.637 577.228 270.843 575.633 269.784C574.036 268.46 573.107 266.606 572.841 264.223C572.841 262.901 572.973 261.312 573.24 259.458C573.503 257.34 574.17 253.633 575.232 248.337C576.298 243.042 577.895 236.555 580.024 228.877C582.149 220.934 584.145 214.843 586.008 210.607C588.405 206.107 592.397 201.87 597.981 197.898C602.505 194.191 616.207 188.234 639.087 180.026C661.968 171.819 695.091 167.714 738.462 167.714C857.922 167.714 917.651 225.568 917.651 341.272V566.063C917.651 571.097 916.19 575.463 913.26 579.17C910.601 582.613 905.947 584.334 899.292 584.334H839.429C835.174 584.334 831.316 583.803 827.857 582.745C824.665 581.423 821.606 579.038 818.677 575.596L793.933 543.823H791.141C778.904 561.563 762.405 574.406 741.655 582.348C721.169 590.293 697.488 594.26 670.615 594.26ZM714.514 502.123C738.992 502.123 757.485 495.898 769.99 483.458C782.495 471.012 790.474 458.17 793.933 444.933V400.846C756.952 400.846 729.149 403.759 710.527 409.583C692.167 415.145 679.928 422.556 673.806 431.824C667.689 440.827 664.631 450.622 664.631 461.213C664.631 476.57 669.419 487.293 678.995 493.385C688.575 499.212 700.414 502.123 714.514 502.123ZM1727.4 487.031C1746.82 487.031 1761.99 485.045 1772.89 481.073C1784.07 477.1 1792.72 472.202 1798.84 466.377C1804.95 460.555 1810.28 454.728 1814.81 448.902C1819.06 443.606 1822.52 439.637 1825.19 436.988C1828.11 434.341 1832.1 432.488 1837.15 431.427C1841.4 430.103 1848.19 429.307 1857.5 429.046C1867.08 428.516 1876.53 428.25 1885.83 428.25C1895.41 428.25 1902.07 428.516 1905.79 429.046C1911.38 429.307 1915.24 430.37 1917.37 432.223C1919.49 434.077 1920.83 438.045 1921.35 444.137C1922.16 452.609 1922.56 462.668 1922.56 474.322C1922.83 485.97 1922.69 496.031 1922.16 504.506C1921.89 507.152 1921.35 509.405 1920.57 511.258C1920.03 513.112 1918.71 515.889 1916.56 519.598C1913.9 523.834 1908.72 530.056 1901 538.263C1893.29 546.208 1881.99 554.546 1867.08 563.284C1852.18 571.756 1832.89 579.038 1809.22 585.13C1785.81 591.217 1756.94 594.26 1722.61 594.26C1685.9 594.26 1651.57 589.63 1619.64 580.36C1587.72 570.831 1559.65 554.945 1535.44 532.7C1511.5 510.462 1492.74 480.409 1479.17 442.548C1465.87 404.686 1459.22 357.423 1459.22 300.763C1459.22 237.747 1470.12 184.263 1491.94 140.31C1514.02 96.093 1545.29 62.467 1585.73 39.4317C1626.17 16.3967 1674.06 4.87902 1729.4 4.87902C1768.24 4.87902 1799.38 8.85064 1822.78 16.7939C1846.47 24.737 1864.42 34.1366 1876.66 44.9922C1888.91 55.5829 1897.55 64.8498 1902.6 72.7932C1904.47 75.706 1905.79 78.3533 1906.59 80.7365C1907.39 82.8547 1907.92 86.2965 1908.2 91.0626C1908.98 97.4172 1909.13 106.684 1908.59 118.864C1908.33 131.043 1907.39 141.767 1905.79 151.034C1904.73 156.859 1903 160.697 1900.61 162.551C1899.55 163.61 1897.68 164.537 1895.02 165.331C1892.36 166.126 1888.37 166.523 1883.05 166.523C1874.54 166.523 1864.96 166.258 1854.32 165.728C1843.68 164.934 1835.68 164.14 1830.37 163.345C1823.98 162.286 1819.32 160.83 1816.39 158.976C1813.47 156.859 1810.54 153.682 1807.61 149.445C1802.82 142.561 1794.59 134.617 1782.88 125.615C1771.16 116.613 1751.87 112.112 1725.01 112.112C1687.22 112.112 1656.1 126.675 1631.63 155.8C1607.15 184.66 1594.91 231.524 1594.91 296.394C1594.91 360.998 1607.67 408.923 1633.21 440.164C1659.02 471.406 1690.43 487.031 1727.4 487.031ZM2106.53 594.26C2067.43 594.26 2036.3 583.409 2013.16 561.695C1990.27 539.717 1978.83 509.537 1978.83 471.145C1978.83 451.285 1982.43 432.882 1989.6 415.938C1997.06 398.728 2009.82 383.636 2027.92 370.663C2046.28 357.423 2071.81 346.833 2104.54 338.889C2137.52 330.947 2179.57 326.313 2230.65 324.989C2230.65 300.894 2224.54 283.551 2212.29 272.961C2200.33 262.371 2182.23 257.075 2158.02 257.075C2136.2 257.075 2118.38 260.782 2104.54 268.195C2090.71 275.609 2082.06 280.639 2078.59 283.287C2074.88 286.464 2070.35 287.656 2065.03 286.861C2057.85 285.802 2050.13 283.95 2041.88 281.302C2033.9 278.654 2025.25 275.609 2015.94 272.167C2014.61 271.637 2013.16 270.843 2011.56 269.784C2009.95 268.46 2009.02 266.606 2008.76 264.223C2008.76 262.901 2008.89 261.312 2009.15 259.458C2009.43 257.34 2010.08 253.633 2011.15 248.337C2012.23 243.042 2013.81 236.555 2015.94 228.877C2018.08 220.934 2020.07 214.843 2021.94 210.607C2024.32 206.107 2028.31 201.87 2033.9 197.898C2038.43 194.191 2052.13 188.234 2075.01 180.026C2097.88 171.819 2131.02 167.714 2174.38 167.714C2293.85 167.714 2353.58 225.568 2353.58 341.272V566.063C2353.58 571.097 2352.11 575.463 2349.18 579.17C2346.51 582.613 2341.86 584.334 2335.22 584.334H2275.36C2271.09 584.334 2267.23 583.803 2263.78 582.745C2260.58 581.423 2257.52 579.038 2254.6 575.596L2229.85 543.823H2227.07C2214.83 561.563 2198.33 574.406 2177.57 582.348C2157.09 590.293 2133.4 594.26 2106.53 594.26ZM2150.44 502.123C2174.91 502.123 2193.41 495.898 2205.92 483.458C2218.42 471.012 2226.4 458.17 2229.85 444.933V400.846C2192.87 400.846 2165.07 403.759 2146.45 409.583C2128.09 415.145 2115.85 422.556 2109.73 431.824C2103.6 440.827 2100.55 450.622 2100.55 461.213C2100.55 476.57 2105.34 487.293 2114.92 493.385C2124.49 499.212 2136.33 502.123 2150.44 502.123Z" fill="url(#paint0_linear_336_241)"/>
<path d="M1084 565.314L991.548 442.347C984.05 432.373 979.339 420.629 977.894 408.295C976.444 395.959 978.307 383.464 983.296 372.065L1045.03 231.689C1050.02 220.304 1057.95 210.418 1068.04 203.025C1078.13 195.632 1090.01 190.993 1102.5 189.576L1256.79 171.796C1269.28 170.388 1281.92 172.242 1293.45 177.168C1304.98 182.095 1315 189.923 1322.51 199.871L1414.97 322.839C1422.47 332.813 1427.18 344.556 1428.62 356.89C1430.07 369.226 1428.21 381.72 1423.22 393.121L1361.48 533.498C1356.5 544.877 1348.55 554.757 1338.47 562.15C1328.38 569.539 1316.5 574.185 1304.02 575.61L1149.73 593.389C1137.24 594.827 1124.59 592.985 1113.05 588.054C1101.51 583.127 1091.49 575.285 1084 565.314Z" fill="url(#paint1_linear_336_241)"/>
<mask id="mask0_336_241" style="mask-type:luminance" maskUnits="userSpaceOnUse" x="1052" y="241" width="285" height="284">
<path d="M1336.5 241H1052V524.121H1336.5V241Z" fill="white"/>
</mask>
<g mask="url(#mask0_336_241)">
<path d="M1311.47 322.708C1316.46 311.029 1315.71 298.869 1308.72 290.675C1300.25 280.742 1285.02 279.75 1270.8 286.702C1285.94 296.808 1299.62 308.92 1311.47 322.708Z" fill="#FF3300"/>
<path d="M1120.36 435.313C1119.19 438.228 1117.17 440.728 1114.56 442.487C1111.95 444.243 1108.87 445.176 1105.71 445.168H1091.78C1091.07 445.184 1090.37 445.06 1089.72 444.808C1089.07 444.552 1088.47 444.171 1087.96 443.682C1087.46 443.193 1087.06 442.611 1086.79 441.966C1086.51 441.323 1086.37 440.63 1086.37 439.932C1086.37 439.229 1086.51 438.541 1086.79 437.894C1087.06 437.252 1087.46 436.665 1087.96 436.178C1088.47 435.689 1089.07 435.308 1089.72 435.052C1090.37 434.8 1091.07 434.679 1091.78 434.697H1105.71C1106.76 434.7 1107.79 434.388 1108.66 433.801C1109.53 433.214 1110.21 432.384 1110.6 431.413C1110.85 430.763 1111.23 430.171 1111.71 429.671C1112.19 429.169 1112.77 428.767 1113.4 428.494C1114.05 428.214 1114.73 428.066 1115.43 428.056C1116.13 428.044 1116.82 428.172 1117.47 428.428C1118.12 428.69 1118.7 429.071 1119.2 429.56C1119.7 430.043 1120.09 430.625 1120.36 431.263C1120.63 431.905 1120.77 432.59 1120.77 433.283C1120.77 433.978 1120.63 434.676 1120.36 435.313ZM1154.92 366.656C1157.52 366.657 1160.06 365.889 1162.23 364.452C1164.39 363.014 1166.08 360.969 1167.07 358.578C1168.07 356.186 1168.33 353.553 1167.82 351.015C1167.31 348.475 1166.06 346.142 1164.22 344.311C1162.38 342.479 1160.04 341.232 1157.49 340.727C1154.93 340.222 1152.29 340.48 1149.89 341.471C1147.48 342.461 1145.43 344.14 1143.98 346.293C1142.54 348.445 1141.77 350.977 1141.77 353.566C1141.77 357.036 1143.15 360.366 1145.62 362.821C1148.09 365.276 1151.43 366.656 1154.92 366.656ZM1197 340.478C1183.95 340.478 1181.57 377.36 1181.26 398.067H1174.02C1173.11 398.067 1172.22 397.833 1171.43 397.388C1170.64 396.944 1169.98 396.305 1169.51 395.53L1159.81 379.49C1158.41 377.171 1156.42 375.25 1154.06 373.918C1151.69 372.586 1149.01 371.885 1146.29 371.886H1133.82C1133.66 371.875 1133.49 371.875 1133.33 371.886H1119.33C1116.4 371.885 1113.53 372.695 1111.04 374.229C1108.55 375.762 1106.53 377.955 1105.22 380.564L1097.61 395.734C1097.02 396.972 1096.94 398.39 1097.39 399.685C1097.84 400.978 1098.78 402.047 1100.01 402.658C1101.24 403.271 1102.66 403.381 1103.98 402.962C1105.28 402.544 1106.38 401.632 1107.02 400.42L1114.63 385.265C1115.07 384.395 1115.74 383.665 1116.57 383.155C1117.4 382.643 1118.36 382.373 1119.33 382.373H1125.74L1116.52 404.745C1115.11 408.162 1114.96 411.964 1116.09 415.483C1117.22 419 1119.55 422.01 1122.69 423.981L1144.39 437.616V460.9C1144.37 461.598 1144.49 462.291 1144.75 462.947C1145.01 463.597 1145.39 464.187 1145.88 464.689C1146.37 465.189 1146.96 465.588 1147.61 465.861C1148.25 466.131 1148.95 466.273 1149.65 466.273C1150.36 466.273 1151.05 466.131 1151.7 465.861C1152.34 465.588 1152.93 465.189 1153.42 464.689C1153.91 464.187 1154.3 463.597 1154.55 462.947C1154.81 462.291 1154.93 461.598 1154.91 460.9V434.71C1154.91 433.827 1154.69 432.954 1154.26 432.183C1153.83 431.408 1153.21 430.753 1152.46 430.279L1141.72 423.531L1154.87 391.633L1160.5 400.927C1161.9 403.25 1163.88 405.17 1166.25 406.503C1168.62 407.835 1171.3 408.534 1174.02 408.533H1186.57C1187.25 408.533 1187.93 408.668 1188.56 408.928C1189.18 409.19 1189.76 409.571 1190.24 410.053C1190.72 410.533 1191.1 411.106 1191.36 411.733C1191.62 412.361 1191.74 413.033 1191.74 413.711V413.817C1191.71 415.19 1191.14 416.499 1190.16 417.466C1189.18 418.432 1187.86 418.982 1186.48 418.999C1183.58 419.205 1181.75 421.722 1181.95 424.605C1184.91 466.114 1193.68 466.115 1196.98 466.115C1211.23 466.115 1212.75 422.181 1212.75 403.296C1212.75 384.41 1211.23 340.478 1197 340.478Z" fill="#004C39"/>
<path d="M1191.12 285.319C1182.57 285.827 1174.12 287.334 1165.94 289.811C1140.79 297.127 1123.7 311.047 1114.2 320.269L1114.13 320.341C1113.17 321.545 1111.32 324.355 1112.02 327.392C1113.21 332.136 1120.09 334.246 1125.08 333.538C1128.63 333.067 1131.24 330.957 1132.42 329.772L1132.45 329.743C1140.05 323.126 1152.87 313.685 1171.15 308.247C1180.34 305.592 1189.85 304.241 1199.41 304.234C1227.44 304.234 1252.62 315.579 1270.92 333.793C1280.33 343.128 1287.79 354.217 1292.89 366.424C1297.98 378.632 1300.62 391.72 1300.63 404.938C1300.63 432.83 1289.23 457.886 1270.92 476.102C1252.62 494.317 1227.46 505.662 1199.41 505.662C1174.2 505.666 1149.89 496.313 1131.24 479.425C1129.54 477.548 1127.43 476.08 1125.08 475.121C1117.48 471.813 1107.03 473.465 1105.84 477.484C1105.61 478.187 1105.61 479.343 1106.51 481.411L1106.62 481.582C1108.9 484.369 1111.34 487.027 1113.92 489.544C1133.63 509.159 1155.25 516.723 1163.09 519.105C1181.16 524.703 1200.31 526.001 1218.97 522.889C1237.64 519.777 1255.32 512.344 1270.57 501.189C1285.83 490.033 1298.23 475.464 1306.79 458.661C1315.35 441.858 1319.82 423.288 1319.85 404.45C1319.85 371.357 1306.31 341.811 1284.46 320.065C1265.54 301.244 1240.87 289.221 1214.34 285.888C1214.16 285.865 1213.99 285.78 1213.87 285.646C1213.75 285.512 1213.68 285.339 1213.68 285.157L1213.77 272.154V271.962C1213.77 271.762 1213.86 271.571 1214 271.43C1214.13 271.288 1214.33 271.21 1214.53 271.21H1236.34C1237.21 271.211 1238.08 271.041 1238.89 270.708C1239.69 270.376 1240.43 269.889 1241.05 269.274C1241.66 268.66 1242.15 267.929 1242.49 267.125C1242.82 266.321 1242.99 265.459 1242.99 264.59V248.769C1242.98 246.817 1242.2 244.946 1240.81 243.566C1239.42 242.185 1237.54 241.407 1235.58 241.4H1168.65C1167.78 241.4 1166.91 241.57 1166.1 241.902C1165.29 242.234 1164.56 242.721 1163.94 243.336C1163.32 243.95 1162.84 244.681 1162.5 245.484C1162.17 246.288 1162 247.149 1162 248.017V263.812C1162 265.765 1162.78 267.637 1164.17 269.019C1165.56 270.399 1167.44 271.179 1169.4 271.184H1190.45C1190.55 271.184 1190.65 271.203 1190.74 271.241C1190.84 271.28 1190.92 271.334 1190.99 271.404C1191.06 271.474 1191.12 271.558 1191.15 271.648C1191.19 271.739 1191.21 271.837 1191.21 271.935V272.13" fill="#004C39"/>
</g>
<path d="M159.388 866.615H139.076V784.426H47.3121V866.615H27V692.211H47.3121V766.529H139.076V692.211H159.388V866.615ZM254.617 692.211C268.955 692.211 280.784 694.002 290.104 697.582C299.503 701.082 306.513 706.448 311.133 713.684C315.753 720.924 318.063 730.146 318.063 741.361C318.063 750.587 316.39 758.298 313.045 764.504C309.699 770.625 305.318 775.595 299.902 779.415C294.485 783.231 288.71 786.171 282.576 788.241L330.49 866.615H306.832L264.056 793.847H227.733V866.615H207.421V692.211H254.617ZM253.422 709.748H227.733V776.67H255.454C269.712 776.67 280.187 773.765 286.878 767.964C293.648 762.158 297.034 753.608 297.034 742.316C297.034 730.465 293.449 722.075 286.28 717.144C279.191 712.213 268.238 709.748 253.422 709.748ZM435.276 866.615L376.609 712.253H375.653C375.973 715.514 376.253 719.489 376.489 724.184C376.73 728.875 376.93 734.006 377.09 739.571C377.246 745.057 377.326 750.663 377.326 756.393V866.615H358.449V692.211H388.56L443.881 837.271H444.717L500.874 692.211H530.746V866.615H510.671V754.958C510.671 749.792 510.751 744.622 510.911 739.451C511.072 734.201 511.267 729.27 511.508 724.66C511.748 719.969 511.984 715.914 512.224 712.493H511.267L451.885 866.615H435.276ZM718.932 866.615L660.265 712.253H659.308C659.629 715.514 659.909 719.489 660.145 724.184C660.385 728.875 660.585 734.006 660.741 739.571C660.901 745.057 660.981 750.663 660.981 756.393V866.615H642.104V692.211H672.215L727.536 837.271H728.373L784.53 692.211H814.401V866.615H794.327V754.958C794.327 749.792 794.407 744.622 794.567 739.451C794.723 734.201 794.923 729.27 795.163 724.66C795.404 719.969 795.639 715.914 795.88 712.493H794.923L735.54 866.615H718.932ZM972.119 801.003C972.119 811.739 970.727 821.325 967.937 829.756C965.148 838.182 961.126 845.302 955.871 851.108C950.612 856.914 944.241 861.364 936.753 864.469C929.345 867.49 920.941 869 911.54 869C902.779 869 894.731 867.49 887.403 864.469C880.155 861.364 873.864 856.914 868.525 851.108C863.271 845.302 859.164 838.182 856.219 829.756C853.354 821.325 851.917 811.739 851.917 801.003C851.917 786.691 854.346 774.525 859.204 764.504C864.067 754.403 870.995 746.727 879.995 741.481C889.076 736.151 899.87 733.486 912.376 733.486C924.327 733.486 934.76 736.151 943.68 741.481C952.681 746.807 959.653 754.523 964.591 764.624C969.61 774.64 972.119 786.771 972.119 801.003ZM872.467 801.003C872.467 811.504 873.864 820.61 876.65 828.321C879.439 836.037 883.742 842.002 889.557 846.217C895.372 850.433 902.86 852.538 912.02 852.538C921.101 852.538 928.549 850.433 934.364 846.217C940.255 842.002 944.597 836.037 947.387 828.321C950.172 820.61 951.569 811.504 951.569 801.003C951.569 790.587 950.172 781.601 947.387 774.045C944.597 766.409 940.295 760.528 934.48 756.393C928.665 752.257 921.141 750.187 911.9 750.187C898.277 750.187 888.28 754.683 881.908 763.669C875.617 772.655 872.467 785.101 872.467 801.003ZM1026.24 681V727.405C1026.24 732.731 1026.09 737.901 1025.77 742.912C1025.53 747.922 1025.33 751.818 1025.17 754.603H1026.24C1029.83 748.717 1035.01 743.747 1041.78 739.691C1048.55 735.636 1057.19 733.606 1067.7 733.606C1084.11 733.606 1097.18 739.291 1106.9 750.663C1116.69 761.959 1121.59 778.776 1121.59 801.123C1121.59 815.839 1119.36 828.241 1114.9 838.342C1110.44 848.443 1104.15 856.078 1096.02 861.249C1087.9 866.415 1078.3 869 1067.23 869C1056.87 869 1048.35 867.09 1041.66 863.274C1035.05 859.379 1029.95 854.648 1026.36 849.078H1024.81L1020.75 866.615H1006.41V681H1026.24ZM1064.48 750.187C1055 750.187 1047.47 752.058 1041.9 755.793C1036.32 759.453 1032.3 765.019 1029.83 772.495C1027.44 779.891 1026.24 789.276 1026.24 800.648V801.723C1026.24 818.184 1028.99 830.786 1034.49 839.537C1039.99 848.203 1049.98 852.538 1064.48 852.538C1076.67 852.538 1085.79 848.083 1091.84 839.177C1097.98 830.271 1101.04 817.545 1101.04 801.003C1101.04 784.146 1098.02 771.46 1091.96 762.954C1085.99 754.443 1076.83 750.187 1064.48 750.187ZM1176.08 735.871V866.615H1156.24V735.871H1176.08ZM1166.4 686.966C1169.67 686.966 1172.46 688.036 1174.76 690.186C1177.15 692.251 1178.35 695.512 1178.35 699.967C1178.35 704.342 1177.15 707.603 1174.76 709.748C1172.46 711.894 1169.67 712.969 1166.4 712.969C1162.97 712.969 1160.1 711.894 1157.8 709.748C1155.57 707.603 1154.45 704.342 1154.45 699.967C1154.45 695.512 1155.57 692.251 1157.8 690.186C1160.1 688.036 1162.97 686.966 1166.4 686.966ZM1238.09 866.615H1218.14V681H1238.09V866.615ZM1330.45 733.486C1341.6 733.486 1351.16 735.951 1359.13 740.882C1367.09 745.812 1373.19 752.733 1377.41 761.639C1381.63 770.465 1383.74 780.806 1383.74 792.657V804.943H1293.29C1293.53 820.29 1297.35 831.981 1304.76 840.012C1312.17 848.043 1322.61 852.063 1336.07 852.063C1344.35 852.063 1351.68 851.308 1358.05 849.793C1364.42 848.283 1371.03 846.057 1377.89 843.113V860.529C1371.27 863.474 1364.7 865.62 1358.17 866.975C1351.72 868.325 1344.07 869 1335.23 869C1322.65 869 1311.65 866.455 1302.26 861.364C1292.93 856.198 1285.69 848.643 1280.51 838.702C1275.33 828.761 1272.74 816.594 1272.74 802.198C1272.74 788.122 1275.09 775.955 1279.79 765.694C1284.57 755.358 1291.26 747.402 1299.86 741.837C1308.55 736.271 1318.74 733.486 1330.45 733.486ZM1330.21 749.712C1319.62 749.712 1311.18 753.168 1304.88 760.089C1298.59 767.009 1294.84 776.67 1293.65 789.077H1362.95C1362.87 781.281 1361.64 774.445 1359.25 768.559C1356.94 762.594 1353.39 757.983 1348.61 754.723C1343.83 751.382 1337.7 749.712 1330.21 749.712ZM1582.56 820.21C1582.56 830.551 1579.98 839.377 1574.8 846.693C1569.7 853.929 1562.53 859.459 1553.29 863.274C1544.05 867.09 1533.18 869 1520.67 869C1514.06 869 1507.81 868.68 1501.91 868.045C1496.02 867.41 1490.6 866.495 1485.66 865.304C1480.72 864.11 1476.38 862.639 1472.64 860.889V841.442C1478.61 843.912 1485.9 846.217 1494.5 848.363C1503.11 850.433 1512.11 851.463 1521.51 851.463C1530.27 851.463 1537.68 850.313 1543.73 848.008C1549.78 845.618 1554.37 842.242 1557.47 837.867C1560.66 833.411 1562.25 828.086 1562.25 821.88C1562.25 815.915 1560.94 810.944 1558.31 806.969C1555.68 802.913 1551.3 799.257 1545.17 795.997C1539.11 792.657 1530.83 789.117 1520.31 785.376C1512.9 782.756 1506.37 779.891 1500.71 776.79C1495.06 773.61 1490.32 770.03 1486.5 766.054C1482.67 762.078 1479.77 757.463 1477.77 752.217C1475.87 746.967 1474.91 740.962 1474.91 734.201C1474.91 724.9 1477.26 716.944 1481.96 710.343C1486.73 703.663 1493.31 698.577 1501.67 695.077C1510.12 691.496 1519.79 689.706 1530.71 689.706C1540.03 689.706 1548.63 690.581 1556.52 692.331C1564.48 694.082 1571.77 696.427 1578.38 699.372L1572.05 716.789C1565.76 714.163 1559.06 711.974 1551.97 710.223C1544.97 708.478 1537.72 707.603 1530.23 707.603C1522.74 707.603 1516.41 708.713 1511.23 710.943C1506.13 713.088 1502.23 716.149 1499.52 720.125C1496.81 724.105 1495.46 728.835 1495.46 734.321C1495.46 740.446 1496.73 745.537 1499.28 749.592C1501.91 753.648 1506.05 757.263 1511.71 760.448C1517.44 763.549 1525.01 766.809 1534.41 770.229C1544.69 773.965 1553.41 777.941 1560.58 782.156C1567.75 786.291 1573.2 791.382 1576.95 797.427C1580.69 803.393 1582.56 810.984 1582.56 820.21ZM1728.21 801.003C1728.21 811.739 1726.82 821.325 1724.03 829.756C1721.25 838.182 1717.22 845.302 1711.96 851.108C1706.71 856.914 1700.33 861.364 1692.85 864.469C1685.44 867.49 1677.03 869 1667.64 869C1658.87 869 1650.83 867.49 1643.5 864.469C1636.25 861.364 1629.96 856.914 1624.62 851.108C1619.36 845.302 1615.26 838.182 1612.31 829.756C1609.45 821.325 1608.01 811.739 1608.01 801.003C1608.01 786.691 1610.44 774.525 1615.3 764.504C1620.16 754.403 1627.09 746.727 1636.09 741.481C1645.17 736.151 1655.97 733.486 1668.47 733.486C1680.42 733.486 1690.85 736.151 1699.78 741.481C1708.78 746.807 1715.75 754.523 1720.68 764.624C1725.7 774.64 1728.21 786.771 1728.21 801.003ZM1628.56 801.003C1628.56 811.504 1629.96 820.61 1632.75 828.321C1635.53 836.037 1639.83 842.002 1645.65 846.217C1651.46 850.433 1658.95 852.538 1668.11 852.538C1677.19 852.538 1684.64 850.433 1690.46 846.217C1696.35 842.002 1700.69 836.037 1703.48 828.321C1706.27 820.61 1707.66 811.504 1707.66 801.003C1707.66 790.587 1706.27 781.601 1703.48 774.045C1700.69 766.409 1696.39 760.528 1690.58 756.393C1684.76 752.257 1677.23 750.187 1667.99 750.187C1654.37 750.187 1644.38 754.683 1638 763.669C1631.71 772.655 1628.56 785.101 1628.56 801.003ZM1782.46 866.615H1762.51V681H1782.46V866.615ZM1932.53 735.871V866.615H1916.28L1913.41 848.243H1912.34C1909.63 852.778 1906.13 856.594 1901.82 859.694C1897.52 862.799 1892.66 865.104 1887.25 866.615C1881.91 868.205 1876.21 869 1870.16 869C1859.81 869 1851.12 867.33 1844.11 863.99C1837.11 860.649 1831.81 855.479 1828.22 848.483C1824.72 841.482 1822.97 832.496 1822.97 821.525V735.871H1843.04V820.09C1843.04 830.986 1845.51 839.137 1850.44 844.547C1855.38 849.873 1862.91 852.538 1873.03 852.538C1882.75 852.538 1890.47 850.708 1896.21 847.053C1902.02 843.392 1906.21 838.027 1908.75 830.946C1911.3 823.79 1912.58 815.04 1912.58 804.703V735.871H1932.53ZM2016.77 852.778C2020.03 852.778 2023.38 852.498 2026.8 851.943C2030.23 851.383 2033.02 850.708 2035.17 849.913V865.304C2032.86 866.335 2029.63 867.21 2025.49 867.925C2021.43 868.645 2017.44 869 2013.54 869C2006.61 869 2000.32 867.81 1994.66 865.42C1989.01 862.955 1984.47 858.819 1981.04 853.014C1977.69 847.212 1976.03 839.177 1976.03 828.921V751.382H1957.38V741.717L1976.14 733.966L1984.03 705.573H1995.98V735.871H2034.33V751.382H1995.98V828.321C1995.98 836.512 1997.85 842.637 2001.6 846.693C2005.42 850.748 2010.48 852.778 2016.77 852.778ZM2081.53 735.871V866.615H2061.69V735.871H2081.53ZM2071.85 686.966C2075.12 686.966 2077.9 688.036 2080.21 690.186C2082.61 692.251 2083.8 695.512 2083.8 699.967C2083.8 704.342 2082.61 707.603 2080.21 709.748C2077.9 711.894 2075.12 712.969 2071.85 712.969C2068.43 712.969 2065.56 711.894 2063.25 709.748C2061.02 707.603 2059.9 704.342 2059.9 699.967C2059.9 695.512 2061.02 692.251 2063.25 690.186C2065.56 688.036 2068.43 686.966 2071.85 686.966ZM2236.5 801.003C2236.5 811.739 2235.1 821.325 2232.31 829.756C2229.53 838.182 2225.51 845.302 2220.25 851.108C2214.99 856.914 2208.62 861.364 2201.13 864.469C2193.72 867.49 2185.32 869 2175.92 869C2167.16 869 2159.11 867.49 2151.79 864.469C2144.54 861.364 2138.24 856.914 2132.91 851.108C2127.65 845.302 2123.55 838.182 2120.6 829.756C2117.73 821.325 2116.3 811.739 2116.3 801.003C2116.3 786.691 2118.73 774.525 2123.59 764.504C2128.44 754.403 2135.38 746.727 2144.38 741.481C2153.46 736.151 2164.25 733.486 2176.76 733.486C2188.7 733.486 2199.14 736.151 2208.06 741.481C2217.06 746.807 2224.03 754.523 2228.97 764.624C2233.99 774.64 2236.5 786.771 2236.5 801.003ZM2136.85 801.003C2136.85 811.504 2138.24 820.61 2141.03 828.321C2143.82 836.037 2148.12 842.002 2153.93 846.217C2159.75 850.433 2167.24 852.538 2176.4 852.538C2185.48 852.538 2192.93 850.433 2198.74 846.217C2204.64 842.002 2208.98 836.037 2211.76 828.321C2214.55 820.61 2215.95 811.504 2215.95 801.003C2215.95 790.587 2214.55 781.601 2211.76 774.045C2208.98 766.409 2204.68 760.528 2198.86 756.393C2193.05 752.257 2185.52 750.187 2176.28 750.187C2162.66 750.187 2152.66 754.683 2146.29 763.669C2139.99 772.655 2136.85 785.101 2136.85 801.003ZM2332.8 733.486C2348.34 733.486 2360.09 737.306 2368.05 744.937C2376.02 752.493 2380 764.664 2380 781.441V866.615H2360.41V782.756C2360.41 771.86 2357.9 763.709 2352.88 758.298C2347.94 752.893 2340.33 750.187 2330.05 750.187C2315.56 750.187 2305.36 754.283 2299.47 762.474C2293.57 770.665 2290.63 782.556 2290.63 798.142V866.615H2270.79V735.871H2286.8L2289.79 754.723H2290.87C2293.65 750.108 2297.2 746.252 2301.5 743.151C2305.8 739.967 2310.62 737.581 2315.95 735.991C2321.29 734.321 2326.91 733.486 2332.8 733.486Z" fill="#FAFAFA"/>
<defs>
<linearGradient id="paint0_linear_336_241" x1="0.945312" y1="297.584" x2="2353.58" y2="297.584" gradientUnits="userSpaceOnUse">
<stop stop-color="white" stop-opacity="0.7"/>
<stop offset="0.25" stop-color="white" stop-opacity="0.75"/>
<stop offset="0.59" stop-color="white" stop-opacity="0.85"/>
<stop offset="0.7501" stop-color="white" stop-opacity="0.8"/>
<stop offset="1" stop-color="white" stop-opacity="0.9"/>
</linearGradient>
<linearGradient id="paint1_linear_336_241" x1="977.416" y1="382.601" x2="1429.1" y2="382.601" gradientUnits="userSpaceOnUse">
<stop stop-color="white" stop-opacity="0.8"/>
<stop offset="0.0001" stop-color="white" stop-opacity="0.7"/>
<stop offset="0.5" stop-color="white" stop-opacity="0.9"/>
<stop offset="0.7501" stop-color="white" stop-opacity="0.8"/>
<stop offset="0.826923" stop-color="white" stop-opacity="0.8"/>
</linearGradient>
</defs>
</svg>
