<svg width="50" height="47" viewBox="0 0 50 47" fill="none" xmlns="http://www.w3.org/2000/svg">
<g clip-path="url(#clip0_1100_2)">
<path d="M11.7993 43.825L1.56414 30.1466C0.734322 29.0372 0.213148 27.731 0.0528561 26.3589C-0.107436 24.9868 0.0987855 23.597 0.650851 22.3288L7.48478 6.71423C8.03652 5.44795 8.91506 4.34822 10.0319 3.52584C11.1487 2.70346 12.4644 2.18746 13.8463 2.02985L30.9259 0.0519937C32.308 -0.104439 33.7074 0.101664 34.984 0.649697C36.2607 1.19773 37.3699 2.06849 38.2007 3.17492L48.4359 16.8533C49.2657 17.9627 49.7869 19.2689 49.9471 20.641C50.1074 22.0131 49.9012 23.4029 49.3491 24.671L42.5152 40.2857C41.9626 41.5513 41.0838 42.6505 39.9672 43.4728C38.8505 44.295 37.5353 44.8114 36.1537 44.97L19.0741 46.9479C17.6917 47.1075 16.2913 46.9029 15.014 46.3546C13.7368 45.8063 12.628 44.9338 11.7993 43.825Z" fill="#004C39"/>
<g clip-path="url(#clip1_1100_2)">
<path d="M37.1804 17.0439C37.7329 15.7449 37.6496 14.3923 36.8763 13.481C35.9374 12.376 34.2523 12.2656 32.6781 13.0389C34.3539 14.163 35.8687 15.5104 37.1804 17.0439Z" fill="#FF3300"/>
<path d="M16.0253 29.5696C15.8962 29.894 15.6725 30.172 15.3833 30.3675C15.094 30.563 14.7526 30.6669 14.4035 30.6656H12.861C12.7832 30.6677 12.7058 30.6541 12.6334 30.6258C12.5609 30.5975 12.4949 30.5549 12.4392 30.5006C12.3834 30.4463 12.3391 30.3814 12.3089 30.3098C12.2786 30.2381 12.2631 30.1611 12.2631 30.0833C12.2631 30.0055 12.2786 29.9285 12.3089 29.8568C12.3391 29.7852 12.3834 29.7203 12.4392 29.666C12.4949 29.6117 12.5609 29.5692 12.6334 29.5408C12.7058 29.5125 12.7832 29.4989 12.861 29.501H14.4035C14.52 29.5014 14.6338 29.4668 14.7303 29.4016C14.8268 29.3364 14.9015 29.2438 14.9446 29.1356C14.9724 29.0636 15.0141 28.9978 15.0675 28.9421C15.1208 28.8863 15.1847 28.8418 15.2554 28.8109C15.3262 28.7801 15.4023 28.7636 15.4795 28.7624C15.5566 28.7612 15.6333 28.7754 15.7049 28.8041C15.7765 28.8328 15.8417 28.8754 15.8967 28.9295C15.9518 28.9836 15.9955 29.0481 16.0254 29.1193C16.0552 29.1904 16.0707 29.2668 16.0708 29.344C16.0709 29.4211 16.0557 29.4975 16.0261 29.5688L16.0253 29.5696ZM19.8504 21.9327C20.1384 21.9327 20.42 21.8474 20.6595 21.6875C20.899 21.5275 21.0857 21.3001 21.196 21.0341C21.3062 20.768 21.3351 20.4752 21.279 20.1927C21.2229 19.9102 21.0842 19.6508 20.8806 19.4471C20.677 19.2434 20.4175 19.1047 20.135 19.0485C19.8526 18.9922 19.5598 19.0211 19.2937 19.1312C19.0276 19.2414 18.8002 19.4281 18.6401 19.6675C18.4801 19.907 18.3947 20.1885 18.3947 20.4766C18.3947 20.8627 18.5481 21.233 18.8211 21.506C19.094 21.7791 19.4643 21.9325 19.8504 21.9327ZM24.509 19.0209C23.0642 19.0209 22.8004 23.1233 22.7663 25.4266H21.9646C21.8642 25.4266 21.7655 25.4006 21.6781 25.3512C21.5908 25.3017 21.5177 25.2305 21.4661 25.1444L20.3919 23.3603C20.2367 23.1022 20.0173 22.8887 19.7551 22.7404C19.4929 22.5922 19.1969 22.5143 18.8957 22.5144H17.5155C17.4971 22.5131 17.4786 22.5131 17.4603 22.5144H15.9116C15.5872 22.5143 15.2693 22.6045 14.9934 22.775C14.7175 22.9455 14.4945 23.1895 14.3495 23.4797L13.5068 25.1672C13.4416 25.3048 13.433 25.4625 13.4826 25.6065C13.5323 25.7505 13.6364 25.8693 13.7726 25.9374C13.9088 26.0056 14.0663 26.0177 14.2113 25.9711C14.3563 25.9246 14.4774 25.8231 14.5484 25.6884L15.3912 24.0025C15.4395 23.9059 15.5137 23.8246 15.6057 23.7678C15.6976 23.711 15.8035 23.681 15.9116 23.681H16.6212L15.6002 26.1694C15.4441 26.5495 15.427 26.9724 15.552 27.3638C15.6769 27.7552 15.936 28.0899 16.2834 28.3091L18.6854 29.8257V32.4156C18.6833 32.4934 18.6969 32.5708 18.7252 32.6432C18.7535 32.7157 18.7961 32.7817 18.8504 32.8374C18.9047 32.8932 18.9696 32.9375 19.0412 32.9677C19.1129 32.9979 19.1899 33.0135 19.2677 33.0135C19.3455 33.0135 19.4225 32.9979 19.4942 32.9677C19.5658 32.9375 19.6307 32.8932 19.685 32.8374C19.7393 32.7817 19.7818 32.7157 19.8102 32.6432C19.8385 32.5708 19.8521 32.4934 19.85 32.4156V29.5026C19.8499 29.4042 19.825 29.3075 19.7775 29.2213C19.73 29.1352 19.6616 29.0624 19.5784 29.0098L18.3894 28.2592L19.8451 24.7109L20.4679 25.7448C20.6231 26.0031 20.8427 26.2167 21.105 26.365C21.3674 26.5132 21.6636 26.591 21.965 26.5908H23.3545C23.4299 26.5909 23.5046 26.6058 23.5743 26.6348C23.644 26.6638 23.7072 26.7063 23.7604 26.7599C23.8136 26.8134 23.8557 26.8769 23.8842 26.9467C23.9128 27.0166 23.9273 27.0914 23.9269 27.1668V27.1786C23.9233 27.3314 23.8606 27.4769 23.7519 27.5844C23.6433 27.6919 23.4972 27.7531 23.3443 27.755C23.0236 27.7778 22.8203 28.0579 22.843 28.3786C23.171 32.9957 24.142 32.9957 24.5074 32.9957C26.0844 32.9957 26.2529 28.109 26.2529 26.0083C26.2529 23.9075 26.0828 19.0204 24.5074 19.0204L24.509 19.0209Z" fill="white"/>
<path d="M23.8575 12.8851C22.9121 12.9416 21.9768 13.1093 21.0707 13.3848C18.2872 14.1987 16.3955 15.7469 15.3429 16.7727C15.3401 16.7752 15.3377 16.7779 15.3356 16.7809C15.2292 16.9148 15.0242 17.2274 15.1022 17.5651C15.2337 18.0929 15.9952 18.3275 16.5481 18.2487C16.9411 18.1964 17.2293 17.9617 17.36 17.8298L17.3636 17.8266C18.2052 17.0906 19.6243 16.0404 21.6475 15.4356C22.6641 15.1401 23.7174 14.9898 24.7761 14.9891C27.8787 14.9891 30.6655 16.2511 32.6919 18.2772C33.7331 19.3155 34.5594 20.5489 35.1235 21.9068C35.6877 23.2647 35.9788 24.7205 35.98 26.1909C35.98 29.2935 34.7179 32.0807 32.6919 34.1068C30.6659 36.1328 27.8807 37.3949 24.7761 37.3949C21.9851 37.3955 19.2943 36.3547 17.2301 34.4762C17.0413 34.2677 16.8081 34.1042 16.5477 33.998C15.7066 33.6298 14.5497 33.8137 14.4182 34.2606C14.3922 34.3385 14.3922 34.4672 14.4924 34.6974C14.4956 34.704 14.4994 34.7102 14.5038 34.7161C14.7563 35.0263 15.0261 35.3221 15.312 35.6018C17.4944 37.7837 19.887 38.6253 20.7549 38.8899C22.7556 39.513 24.8748 39.6572 26.9415 39.3111C29.0082 38.9649 30.9647 38.138 32.6532 36.897C34.3418 35.6561 35.7151 34.0358 36.6626 32.1667C37.6101 30.2976 38.1052 28.2321 38.1079 26.1365C38.1079 22.4555 36.6092 19.169 34.1902 16.75C32.0964 14.6566 29.3657 13.3192 26.4283 12.9484C26.4083 12.946 26.39 12.9364 26.3765 12.9215C26.3631 12.9065 26.3555 12.8873 26.3552 12.8672L26.3658 11.4208V11.3993C26.3658 11.3772 26.3746 11.3559 26.3902 11.3402C26.4059 11.3245 26.4272 11.3157 26.4494 11.3157H28.8635C28.9602 11.3159 29.0561 11.2969 29.1455 11.26C29.2349 11.223 29.3161 11.1688 29.3845 11.1004C29.453 11.032 29.5072 10.9507 29.5441 10.8613C29.5811 10.7719 29.6 10.6761 29.5999 10.5793V8.81959C29.5991 8.60238 29.5125 8.39429 29.3588 8.24074C29.2052 8.08719 28.9971 8.00064 28.7799 8H21.3703C21.2736 7.99984 21.1778 8.01877 21.0884 8.0557C20.9991 8.09263 20.9179 8.14683 20.8495 8.2152C20.7811 8.28358 20.7269 8.36477 20.69 8.45414C20.6531 8.5435 20.6341 8.63927 20.6343 8.73597V10.4929C20.6348 10.7101 20.7213 10.9183 20.8749 11.072C21.0285 11.2256 21.2366 11.3122 21.4539 11.3129H23.7844C23.7954 11.3129 23.8062 11.315 23.8164 11.3192C23.8265 11.3234 23.8358 11.3296 23.8435 11.3374C23.8513 11.3451 23.8574 11.3543 23.8616 11.3645C23.8658 11.3746 23.868 11.3855 23.868 11.3965V11.418" fill="white"/>
</g>
</g>
<defs>
<clipPath id="clip0_1100_2">
<rect width="50" height="47" fill="white"/>
</clipPath>
<clipPath id="clip1_1100_2">
<rect width="31.4928" height="31.4928" fill="white" transform="translate(9.44783 8)"/>
</clipPath>
</defs>
</svg>
